<svg width="297" height="67" viewBox="0 0 297 67" fill="none" xmlns="http://www.w3.org/2000/svg">
<path d="M3.5414 60.0545L7.25991 61.7708V36.0273L0.394975 52.6175C-0.74918 55.764 0.681014 58.9104 3.5414 60.0545ZM39.8683 17.7208L54.1703 52.0454L33.2894 60.6266L18.9875 26.588V26.3019L39.8683 17.7208M40.1544 12C39.2963 12 38.7242 12 37.8661 12.286L16.6992 21.1532C14.6969 22.0114 13.2667 24.0136 13.2667 26.3019C13.2667 26.874 13.2667 27.7321 13.5528 28.5903L27.8547 62.6289C28.7128 64.9172 30.7151 66.0614 33.0034 66.0614C33.8615 66.0614 34.4336 66.0614 35.2917 65.7753L56.4586 56.9081C59.319 55.764 60.7492 52.3315 59.605 49.4711L45.3031 15.4325C44.445 13.1442 42.1567 12 40.1544 12M26.4245 32.3088C24.7083 32.3088 23.5641 31.1646 23.5641 29.4484C23.5641 27.7321 24.7083 26.588 26.4245 26.588C28.1407 26.588 29.2849 28.0182 29.2849 29.4484C29.2849 30.8786 28.1407 32.3088 26.4245 32.3088ZM13.2667 60.6266C13.2667 63.773 15.8411 66.3474 18.9875 66.3474H22.992L13.2667 42.6062V60.6266Z" fill="#E1B111"/>
<path d="M72.7246 31.4512C72.1582 31.0215 71.6895 30.4844 71.3184 29.8398C70.9668 29.1953 70.6836 28.5117 70.4688 27.7891C70.2734 27.0664 70.1367 26.3242 70.0586 25.5625C70 24.7812 69.9805 24.0391 70 23.3359C70.1758 22.8086 70.3906 22.3301 70.6445 21.9004C70.8984 21.4512 71.1816 21.0312 71.4941 20.6406C71.8066 20.2305 72.1289 19.8496 72.4609 19.498C72.8125 19.127 73.1543 18.7559 73.4863 18.3848C73.6035 18.3848 73.7109 18.4141 73.8086 18.4727C73.8867 18.2578 74.0039 18.0723 74.1602 17.916C74.3164 17.7598 74.4824 17.623 74.6582 17.5059C74.834 17.3691 75.0098 17.2422 75.1855 17.125C75.3613 16.9883 75.5078 16.832 75.625 16.6562C76.1133 16.5391 76.543 16.373 76.9141 16.1582C77.3047 15.9434 77.6758 15.709 78.0273 15.4551C78.3789 15.2012 78.7402 14.9668 79.1113 14.752C79.4824 14.5371 79.9121 14.3711 80.4004 14.2539C80.5762 14.0586 80.791 13.8926 81.0449 13.7559C81.3184 13.6191 81.582 13.4922 81.8359 13.375C82.1094 13.2578 82.3633 13.1309 82.5977 12.9941C82.8516 12.8574 83.0566 12.6719 83.2129 12.4375C83.3301 12.5938 83.4961 12.6523 83.7109 12.6133C83.9258 12.5547 84.1211 12.4961 84.2969 12.4375C84.4141 12.418 84.5117 12.4375 84.5898 12.4961C84.668 12.5547 84.7363 12.623 84.7949 12.7012C84.873 12.7598 84.9316 12.7988 84.9707 12.8184C85.0293 12.8379 85.0879 12.7793 85.1465 12.6426C85.3027 12.6621 85.3418 12.7305 85.2637 12.8477C85.2051 12.9648 85.166 13.043 85.1465 13.082C85.3418 13.043 85.498 13.082 85.6152 13.1992C85.752 13.2969 85.957 13.3652 86.2305 13.4043C86.3281 13.502 86.3574 13.5801 86.3184 13.6387C86.2793 13.6973 86.25 13.7949 86.2305 13.9316C86.9336 14.1465 87.3828 14.4883 87.5781 14.957C87.7734 15.4063 87.793 15.8848 87.6367 16.3926C87.4805 16.8809 87.1875 17.3398 86.7578 17.7695C86.3477 18.1797 85.8887 18.4531 85.3809 18.5898C84.7754 18.7461 84.209 18.9023 83.6816 19.0586C83.1738 19.2148 82.6758 19.3906 82.1875 19.5859C81.7188 19.7812 81.2695 20.0156 80.8398 20.2891C80.4297 20.543 80.0684 20.8457 79.7559 21.1973C79.209 21.3535 78.7109 21.5684 78.2617 21.8418C77.832 22.1152 77.4219 22.418 77.0312 22.75C76.6602 23.082 76.2988 23.4336 75.9473 23.8047C75.5957 24.1562 75.2441 24.5078 74.8926 24.8594C74.8926 25.1914 74.834 25.4453 74.7168 25.6211C74.5996 25.7969 74.4727 25.9727 74.3359 26.1484C74.375 26.5195 74.4531 26.8418 74.5703 27.1152C74.707 27.3691 74.8438 27.6328 74.9805 27.9062C76.543 28.375 78.1934 28.668 79.9316 28.7852C81.6895 28.8828 83.4277 28.9414 85.1465 28.9609C85.3223 29.1953 85.5176 29.4199 85.7324 29.6348C85.9668 29.8301 86.1719 30.0352 86.3477 30.25C86.543 30.4648 86.6895 30.7188 86.7871 31.0117C86.9043 31.2852 86.9336 31.6172 86.875 32.0078C86.543 32.3398 86.1816 32.6621 85.791 32.9746C85.4004 33.2676 85.0098 33.5605 84.6191 33.8535C84.4434 33.873 84.2285 33.873 83.9746 33.8535C83.7402 33.834 83.4863 33.8242 83.2129 33.8242C82.959 33.8242 82.6953 33.8438 82.4219 33.8828C82.168 33.9023 81.9238 33.9609 81.6895 34.0586C80.459 34.0195 79.1992 33.873 77.9102 33.6191C76.6211 33.3457 75.4297 33.0234 74.3359 32.6523C74.1211 32.3984 73.8965 32.1641 73.6621 31.9492C73.4277 31.7148 73.1152 31.5488 72.7246 31.4512ZM95.4004 34.1172C94.541 34.2344 93.7598 34.1953 93.0566 34C92.3535 33.8047 91.7188 33.502 91.1523 33.0918C90.6055 32.6816 90.127 32.1934 89.7168 31.627C89.3262 31.0605 89.0039 30.4551 88.75 29.8105C88.5742 28.4824 88.623 27.2812 88.8965 26.207C89.1699 25.1133 89.5703 24.1074 90.0977 23.1895C90.625 22.2715 91.2207 21.4121 91.8848 20.6113C92.5684 19.8105 93.2227 19.0391 93.8477 18.2969C93.9844 18.3555 94.0918 18.3555 94.1699 18.2969C94.2676 18.2383 94.3457 18.1602 94.4043 18.0625C94.4824 17.9648 94.5605 17.8672 94.6387 17.7695C94.7363 17.6719 94.8438 17.6035 94.9609 17.5645C95.0391 17.3887 95.1367 17.2422 95.2539 17.125C95.3906 17.0078 95.5273 16.9004 95.6641 16.8027C95.8203 16.6855 95.957 16.5684 96.0742 16.4512C96.2109 16.334 96.3281 16.1875 96.4258 16.0117C96.6211 15.9727 96.7871 15.9043 96.9238 15.8066C97.0801 15.709 97.2168 15.6016 97.334 15.4844C97.4707 15.3672 97.6074 15.2598 97.7441 15.1621C97.8809 15.0645 98.0469 14.9863 98.2422 14.9277V14.5469C98.6719 14.3516 98.9844 14.1367 99.1797 13.9023C99.375 13.668 99.6094 13.3652 99.8828 12.9941C100.098 12.9746 100.264 12.9648 100.381 12.9648C100.518 12.9648 100.723 12.9453 100.996 12.9062C101.172 12.5742 101.338 12.3301 101.494 12.1738C101.65 12.0176 101.875 11.8418 102.168 11.6465C102.461 11.8027 102.773 11.9004 103.105 11.9395C103.438 11.959 103.74 12.1055 104.014 12.3789C104.033 12.6133 104.102 12.7988 104.219 12.9355C104.336 13.0527 104.463 13.1699 104.6 13.2871C104.736 13.3848 104.873 13.4922 105.01 13.6094C105.146 13.7266 105.234 13.8926 105.273 14.1074C105.371 14.1074 105.43 14.0879 105.449 14.0488C105.488 14.0098 105.557 14 105.654 14.0195C105.693 14.1758 105.732 14.3027 105.771 14.4004C105.811 14.498 105.85 14.5859 105.889 14.6641C105.947 14.7422 105.996 14.8301 106.035 14.9277C106.094 15.0254 106.143 15.1426 106.182 15.2793C106.084 15.5137 105.996 15.7676 105.918 16.041C105.84 16.2949 105.684 16.4707 105.449 16.5684C105.449 16.7246 105.508 16.8125 105.625 16.832C105.742 16.832 105.811 16.9004 105.83 17.0371C105.85 17.2129 105.82 17.3594 105.742 17.4766C106.289 18.3945 106.787 19.3613 107.236 20.377C107.686 21.373 108.193 22.3301 108.76 23.248C108.721 23.5215 108.73 23.7949 108.789 24.0684C108.867 24.3223 108.955 24.5762 109.053 24.8301C109.17 25.084 109.277 25.3379 109.375 25.5918C109.473 25.8457 109.541 26.0996 109.58 26.3535C109.619 26.6855 109.619 27.0469 109.58 27.4375C109.541 27.8086 109.463 28.1699 109.346 28.5215C109.229 28.873 109.072 29.2051 108.877 29.5176C108.682 29.8105 108.457 30.0352 108.203 30.1914C107.891 30.582 107.5 30.9043 107.031 31.1582C106.562 31.3926 106.133 31.6758 105.742 32.0078C105.469 32.1641 105.176 32.2812 104.863 32.3594C104.551 32.418 104.229 32.4863 103.896 32.5645C103.643 32.7207 103.34 32.877 102.988 33.0332C102.637 33.1699 102.275 33.2969 101.904 33.4141C101.533 33.5312 101.162 33.6289 100.791 33.707C100.42 33.7656 100.088 33.7754 99.7949 33.7363C99.0918 33.9902 98.4082 34.166 97.7441 34.2637C97.0801 34.3613 96.2988 34.3125 95.4004 34.1172ZM95.7812 23.4531C95.5859 23.9023 95.3516 24.3125 95.0781 24.6836C94.8242 25.0352 94.5703 25.3965 94.3164 25.7676C94.0625 26.1387 93.8379 26.5391 93.6426 26.9688C93.4668 27.3789 93.3691 27.8672 93.3496 28.4336C93.7402 28.7656 94.1992 28.9707 94.7266 29.0488C95.2734 29.1074 95.8301 29.1172 96.3965 29.0781C96.9629 29.0195 97.5293 28.9414 98.0957 28.8438C98.6621 28.7461 99.1699 28.6973 99.6191 28.6973C99.6191 28.5215 99.6973 28.4336 99.8535 28.4336C100.674 28.3555 101.436 28.1309 102.139 27.7598C102.842 27.3691 103.574 26.9785 104.336 26.5879C104.434 26.3535 104.561 26.1484 104.717 25.9727C104.873 25.7969 104.961 25.543 104.98 25.2109C104.883 25.0352 104.814 24.8887 104.775 24.7715C104.756 24.6543 104.746 24.4785 104.746 24.2441C104.238 23.541 103.799 22.7793 103.428 21.959C103.057 21.1191 102.627 20.3281 102.139 19.5859C102.1 19.6836 102.021 19.7812 101.904 19.8789C101.787 19.9766 101.66 19.957 101.523 19.8203C101.465 20.0156 101.377 20.1523 101.26 20.2305C101.143 20.2891 101.006 20.3184 100.85 20.3184C100.713 20.3184 100.566 20.2891 100.41 20.2305C100.273 20.1719 100.146 20.0938 100.029 19.9961C99.3457 20.543 98.6621 21.0703 97.9785 21.5781C97.3145 22.0859 96.709 22.6816 96.1621 23.3652C96.0645 23.4238 96.0059 23.4434 95.9863 23.4238C95.9668 23.4043 95.8984 23.4141 95.7812 23.4531ZM112.334 32.916C112.256 32.8379 112.188 32.75 112.129 32.6523C112.07 32.5352 112.021 32.3887 111.982 32.2129C111.709 31.8809 111.494 31.5 111.338 31.0703C111.182 30.6406 111.074 30.2012 111.016 29.752C110.957 29.2832 110.947 28.8145 110.986 28.3457C111.025 27.877 111.094 27.4375 111.191 27.0273C111.25 26.832 111.299 26.627 111.338 26.4121C111.436 26.041 111.533 25.6797 111.631 25.3281C111.729 24.957 111.875 24.6543 112.07 24.4199C111.992 24.2051 112.002 23.9707 112.1 23.7168C112.197 23.4629 112.295 23.2285 112.393 23.0137C112.432 22.9551 112.461 22.9062 112.48 22.8672C112.5 22.8086 112.52 22.7598 112.539 22.7207C112.773 22.0371 112.998 21.3828 113.213 20.7578C113.447 20.1133 113.672 19.498 113.887 18.9121C114.277 17.8379 114.648 16.7832 115 15.748C115.371 14.7129 115.703 13.6094 115.996 12.4375C116.152 12.3203 116.289 12.2422 116.406 12.2031C116.445 12.1836 116.494 12.1641 116.553 12.1445C116.611 12.125 116.68 12.1152 116.758 12.1152C117.168 12.3301 117.646 12.5352 118.193 12.7305C118.76 12.9062 119.238 12.9941 119.629 12.9941L120.127 13.4336C120.381 13.7266 120.596 14.0391 120.771 14.3711C120.967 14.6836 121.025 15.0937 120.947 15.6016C120.83 15.7773 120.732 15.8848 120.654 15.9238C120.537 16.373 120.41 16.7734 120.273 17.125C120.137 17.457 120 17.7793 119.863 18.0918C119.707 18.4434 119.561 18.7949 119.424 19.1465C119.287 19.498 119.17 19.9277 119.072 20.4355C118.955 20.5723 118.877 20.6895 118.838 20.7871C118.818 20.8848 118.789 20.9824 118.75 21.0801C118.711 21.1973 118.662 21.3242 118.604 21.4609C118.545 21.5781 118.457 21.6855 118.34 21.7832C118.262 22.3887 118.145 22.8867 117.988 23.2773C117.832 23.6484 117.676 24.0195 117.52 24.3906C117.246 25.0742 116.992 25.7578 116.758 26.4414C116.523 27.1055 116.387 27.8672 116.348 28.7266C116.582 28.668 116.797 28.6387 116.992 28.6387C117.246 28.6387 117.49 28.6777 117.725 28.7559C118.428 28.4043 119.189 28.1895 120.01 28.1113C120.85 28.0332 121.68 27.9844 122.5 27.9648C123.184 27.9648 123.818 27.9355 124.404 27.877C124.6 28.0137 124.727 28.0918 124.785 28.1113C124.844 28.1113 124.941 28.1113 125.078 28.1113C125.137 28.1113 125.195 28.1113 125.254 28.1113C125.312 28.1113 125.391 28.1211 125.488 28.1406C125.762 28.4141 126.025 28.6094 126.279 28.7266C126.533 28.8242 126.807 28.9219 127.1 29.0195C127.354 29.1172 127.598 29.2246 127.832 29.3418C128.086 29.4395 128.33 29.5762 128.564 29.752L128.828 31.2461C128.984 31.4609 129.053 31.6074 129.033 31.6855C129.033 31.8418 128.994 31.9785 128.916 32.0957L128.975 32.4766C128.604 32.5547 128.359 32.6426 128.242 32.7402C128.125 32.8184 127.998 32.9258 127.861 33.0625C127.646 33.082 127.441 33.0918 127.246 33.0918C126.855 33.0918 126.455 33.1504 126.045 33.2676C125.459 33.0527 124.814 32.9453 124.111 32.9453C123.838 32.9453 123.555 32.9551 123.262 32.9746C122.988 32.9941 122.715 33.0234 122.441 33.0625C122.148 33.1016 121.855 33.1406 121.562 33.1797C121.27 33.1992 120.977 33.209 120.684 33.209C120.449 33.248 120.283 33.2773 120.186 33.2969C120.088 33.3164 119.99 33.3457 119.893 33.3848C119.229 33.5996 118.506 33.8145 117.725 34.0293C116.963 34.2441 116.191 34.3516 115.41 34.3516C114.258 34.3516 113.33 34.0586 112.627 33.4727C112.549 33.2969 112.49 33.1797 112.451 33.1211C112.412 33.0625 112.373 32.9941 112.334 32.916ZM136.709 34.1172C135.85 34.2344 135.068 34.1953 134.365 34C133.662 33.8047 133.027 33.502 132.461 33.0918C131.914 32.6816 131.436 32.1934 131.025 31.627C130.635 31.0605 130.312 30.4551 130.059 29.8105C129.883 28.4824 129.932 27.2812 130.205 26.207C130.479 25.1133 130.879 24.1074 131.406 23.1895C131.934 22.2715 132.529 21.4121 133.193 20.6113C133.877 19.8105 134.531 19.0391 135.156 18.2969C135.293 18.3555 135.4 18.3555 135.479 18.2969C135.576 18.2383 135.654 18.1602 135.713 18.0625C135.791 17.9648 135.869 17.8672 135.947 17.7695C136.045 17.6719 136.152 17.6035 136.27 17.5645C136.348 17.3887 136.445 17.2422 136.562 17.125C136.699 17.0078 136.836 16.9004 136.973 16.8027C137.129 16.6855 137.266 16.5684 137.383 16.4512C137.52 16.334 137.637 16.1875 137.734 16.0117C137.93 15.9727 138.096 15.9043 138.232 15.8066C138.389 15.709 138.525 15.6016 138.643 15.4844C138.779 15.3672 138.916 15.2598 139.053 15.1621C139.189 15.0645 139.355 14.9863 139.551 14.9277V14.5469C139.98 14.3516 140.293 14.1367 140.488 13.9023C140.684 13.668 140.918 13.3652 141.191 12.9941C141.406 12.9746 141.572 12.9648 141.689 12.9648C141.826 12.9648 142.031 12.9453 142.305 12.9062C142.48 12.5742 142.646 12.3301 142.803 12.1738C142.959 12.0176 143.184 11.8418 143.477 11.6465C143.77 11.8027 144.082 11.9004 144.414 11.9395C144.746 11.959 145.049 12.1055 145.322 12.3789C145.342 12.6133 145.41 12.7988 145.527 12.9355C145.645 13.0527 145.771 13.1699 145.908 13.2871C146.045 13.3848 146.182 13.4922 146.318 13.6094C146.455 13.7266 146.543 13.8926 146.582 14.1074C146.68 14.1074 146.738 14.0879 146.758 14.0488C146.797 14.0098 146.865 14 146.963 14.0195C147.002 14.1758 147.041 14.3027 147.08 14.4004C147.119 14.498 147.158 14.5859 147.197 14.6641C147.256 14.7422 147.305 14.8301 147.344 14.9277C147.402 15.0254 147.451 15.1426 147.49 15.2793C147.393 15.5137 147.305 15.7676 147.227 16.041C147.148 16.2949 146.992 16.4707 146.758 16.5684C146.758 16.7246 146.816 16.8125 146.934 16.832C147.051 16.832 147.119 16.9004 147.139 17.0371C147.158 17.2129 147.129 17.3594 147.051 17.4766C147.598 18.3945 148.096 19.3613 148.545 20.377C148.994 21.373 149.502 22.3301 150.068 23.248C150.029 23.5215 150.039 23.7949 150.098 24.0684C150.176 24.3223 150.264 24.5762 150.361 24.8301C150.479 25.084 150.586 25.3379 150.684 25.5918C150.781 25.8457 150.85 26.0996 150.889 26.3535C150.928 26.6855 150.928 27.0469 150.889 27.4375C150.85 27.8086 150.771 28.1699 150.654 28.5215C150.537 28.873 150.381 29.2051 150.186 29.5176C149.99 29.8105 149.766 30.0352 149.512 30.1914C149.199 30.582 148.809 30.9043 148.34 31.1582C147.871 31.3926 147.441 31.6758 147.051 32.0078C146.777 32.1641 146.484 32.2812 146.172 32.3594C145.859 32.418 145.537 32.4863 145.205 32.5645C144.951 32.7207 144.648 32.877 144.297 33.0332C143.945 33.1699 143.584 33.2969 143.213 33.4141C142.842 33.5312 142.471 33.6289 142.1 33.707C141.729 33.7656 141.396 33.7754 141.104 33.7363C140.4 33.9902 139.717 34.166 139.053 34.2637C138.389 34.3613 137.607 34.3125 136.709 34.1172ZM137.09 23.4531C136.895 23.9023 136.66 24.3125 136.387 24.6836C136.133 25.0352 135.879 25.3965 135.625 25.7676C135.371 26.1387 135.146 26.5391 134.951 26.9688C134.775 27.3789 134.678 27.8672 134.658 28.4336C135.049 28.7656 135.508 28.9707 136.035 29.0488C136.582 29.1074 137.139 29.1172 137.705 29.0781C138.271 29.0195 138.838 28.9414 139.404 28.8438C139.971 28.7461 140.479 28.6973 140.928 28.6973C140.928 28.5215 141.006 28.4336 141.162 28.4336C141.982 28.3555 142.744 28.1309 143.447 27.7598C144.15 27.3691 144.883 26.9785 145.645 26.5879C145.742 26.3535 145.869 26.1484 146.025 25.9727C146.182 25.7969 146.27 25.543 146.289 25.2109C146.191 25.0352 146.123 24.8887 146.084 24.7715C146.064 24.6543 146.055 24.4785 146.055 24.2441C145.547 23.541 145.107 22.7793 144.736 21.959C144.365 21.1191 143.936 20.3281 143.447 19.5859C143.408 19.6836 143.33 19.7812 143.213 19.8789C143.096 19.9766 142.969 19.957 142.832 19.8203C142.773 20.0156 142.686 20.1523 142.568 20.2305C142.451 20.2891 142.314 20.3184 142.158 20.3184C142.021 20.3184 141.875 20.2891 141.719 20.2305C141.582 20.1719 141.455 20.0938 141.338 19.9961C140.654 20.543 139.971 21.0703 139.287 21.5781C138.623 22.0859 138.018 22.6816 137.471 23.3652C137.373 23.4238 137.314 23.4434 137.295 23.4238C137.275 23.4043 137.207 23.4141 137.09 23.4531ZM152.793 31.4805C152.695 31.5 152.607 31.4316 152.529 31.2754C152.451 31.0996 152.363 30.9336 152.266 30.7773H152.588C152.451 30.3477 152.412 29.957 152.471 29.6055C152.549 29.2344 152.637 28.8828 152.734 28.5508C152.832 28.1992 152.91 27.8672 152.969 27.5547C153.047 27.2227 153.018 26.8809 152.881 26.5293C152.979 26.5879 153.047 26.5684 153.086 26.4707C153.145 26.3535 153.184 26.2168 153.203 26.0605C153.242 25.8848 153.252 25.709 153.232 25.5332C153.232 25.3379 153.223 25.1816 153.203 25.0645C153.457 24.459 153.652 23.834 153.789 23.1895C153.945 22.5449 154.082 21.9102 154.199 21.2852C154.316 20.6406 154.443 20.0254 154.58 19.4395C154.736 18.834 154.932 18.2676 155.166 17.7402C155.439 17.7012 155.723 17.7402 156.016 17.8574C156.328 17.9551 156.533 18.082 156.631 18.2383C157.236 17.7695 157.773 17.2031 158.242 16.5391C158.711 15.875 159.18 15.2305 159.648 14.6055C160.137 13.9609 160.684 13.3945 161.289 12.9062C161.895 12.418 162.646 12.125 163.545 12.0273C164.014 12.3594 164.541 12.7207 165.127 13.1113C165.713 13.4824 166.191 13.9512 166.562 14.5176C166.719 14.6152 166.865 14.7227 167.002 14.8398C167.158 14.9375 167.314 15.0352 167.471 15.1328V15.5723C167.744 15.8262 167.969 16.1289 168.145 16.4805C168.34 16.8125 168.506 17.1738 168.643 17.5645C168.799 17.9355 168.945 18.3164 169.082 18.707C169.219 19.0977 169.375 19.459 169.551 19.791C169.512 19.9082 169.492 20.0156 169.492 20.1133C169.512 20.1914 169.531 20.2793 169.551 20.377C169.59 20.4551 169.619 20.5527 169.639 20.6699C169.658 20.7676 169.668 20.8945 169.668 21.0508C169.59 22.0859 169.248 22.9258 168.643 23.5703C168.057 24.1953 167.334 24.7129 166.475 25.123C165.635 25.5137 164.736 25.8555 163.779 26.1484C162.822 26.4219 161.953 26.7246 161.172 27.0566C161.172 27.1348 161.211 27.1738 161.289 27.1738C161.387 27.1738 161.416 27.2324 161.377 27.3496C161.963 27.7012 162.412 27.9844 162.725 28.1992C163.057 28.4141 163.359 28.5996 163.633 28.7559C163.926 28.8926 164.238 29.0098 164.57 29.1074C164.922 29.2051 165.4 29.3223 166.006 29.459C166.611 29.5957 167.08 29.7129 167.412 29.8105C167.764 29.8887 168.076 29.957 168.35 30.0156C168.623 30.0547 168.916 30.0938 169.229 30.1328C169.541 30.1719 169.961 30.2207 170.488 30.2793C170.703 30.4941 170.879 30.748 171.016 31.041C171.152 31.334 171.25 31.627 171.309 31.9199C171.367 32.2129 171.377 32.4961 171.338 32.7695C171.318 33.0234 171.24 33.2285 171.104 33.3848C171.123 33.4629 171.172 33.502 171.25 33.502C171.348 33.4824 171.445 33.4824 171.543 33.502C171.406 33.5996 171.289 33.7168 171.191 33.8535C171.094 33.9902 170.996 34.127 170.898 34.2637C170.801 34.4004 170.684 34.5273 170.547 34.6445C170.43 34.7617 170.273 34.8301 170.078 34.8496C169.375 35.123 168.477 35.1328 167.383 34.8789C166.289 34.625 164.893 34.1758 163.193 33.5312C162.354 33.2188 161.67 32.9355 161.143 32.6816C160.615 32.4277 160.156 32.1836 159.766 31.9492C159.375 31.6953 159.014 31.4316 158.682 31.1582C158.35 30.8652 157.969 30.5234 157.539 30.1328C157.48 30.1523 157.441 30.1914 157.422 30.25C157.422 30.3086 157.393 30.3477 157.334 30.3672C157.236 31.1484 157.08 31.7832 156.865 32.2715C156.67 32.7598 156.377 33.2578 155.986 33.7656C155.674 33.707 155.459 33.7363 155.342 33.8535C155.244 33.9707 155.117 34.0781 154.961 34.1758C154.766 34.2148 154.619 34.2051 154.521 34.1465C154.424 34.1074 154.336 34.0586 154.258 34C154.18 33.9414 154.092 33.8828 153.994 33.8242C153.896 33.7656 153.74 33.7461 153.525 33.7656C153.467 33.5898 153.408 33.4238 153.35 33.2676C153.291 33.0918 153.135 33.0137 152.881 33.0332C152.939 32.8574 152.959 32.7109 152.939 32.5938C152.92 32.457 152.891 32.3398 152.852 32.2422C152.812 32.125 152.773 32.0078 152.734 31.8906C152.715 31.7734 152.734 31.6367 152.793 31.4805ZM162.578 18.0918C162.324 18.4629 162.041 18.8047 161.729 19.1172C161.416 19.4102 161.104 19.7227 160.791 20.0547C160.498 20.3672 160.234 20.7188 160 21.1094C159.766 21.4805 159.6 21.9297 159.502 22.457C160.322 22.3594 161.182 22.1348 162.08 21.7832C162.979 21.4121 163.828 21.0605 164.629 20.7285C164.531 20.0059 164.277 19.4297 163.867 19C163.457 18.5508 163.027 18.248 162.578 18.0918ZM183.789 25.7383C183.809 25.6602 183.848 25.6309 183.906 25.6504C183.984 25.6504 184.053 25.6406 184.111 25.6211C183.955 25.4648 183.857 25.2598 183.818 25.0059C183.779 24.7324 183.682 24.5078 183.525 24.332C183.564 24.2344 183.594 24.1367 183.613 24.0391C183.652 23.9414 183.74 23.9023 183.877 23.9219C183.818 23.4922 183.828 23.0918 183.906 22.7207C183.984 22.3496 184.102 21.998 184.258 21.666C184.434 21.334 184.629 21.0117 184.844 20.6992C185.078 20.3672 185.303 20.0352 185.518 19.7031C185.693 19.6641 185.801 19.6836 185.84 19.7617C185.879 19.8203 185.947 19.8008 186.045 19.7031C186.357 19.4883 186.572 19.2539 186.689 19C186.807 18.7266 186.865 18.4336 186.865 18.1211C187.041 17.6133 187.236 17.1152 187.451 16.627C187.686 16.1191 187.949 15.6504 188.242 15.2207C188.535 14.791 188.848 14.4199 189.18 14.1074C189.512 13.7754 189.873 13.5215 190.264 13.3457C190.537 13.1113 190.879 12.8965 191.289 12.7012C191.719 12.5059 192.168 12.3594 192.637 12.2617C193.125 12.1445 193.623 12.0859 194.131 12.0859C194.639 12.0664 195.107 12.1152 195.537 12.2324C195.635 12.2715 195.693 12.252 195.713 12.1738C195.732 12.0762 195.781 12.0273 195.859 12.0273C196.836 12.1445 197.705 12.3398 198.467 12.6133C199.248 12.8867 199.912 13.2676 200.459 13.7559C200.83 14.3418 201.182 14.9766 201.514 15.6602C201.846 16.3242 202.1 17.0273 202.275 17.7695C202.471 18.4922 202.559 19.2441 202.539 20.0254C202.52 20.8066 202.354 21.5879 202.041 22.3691C201.357 23.2285 200.527 23.9219 199.551 24.4492C198.574 24.957 197.52 25.3867 196.387 25.7383C195.273 26.0703 194.111 26.3438 192.9 26.5586C191.709 26.7734 190.547 27.0078 189.414 27.2617C189.434 27.7891 189.434 28.3555 189.414 28.9609C189.395 29.5469 189.326 30.1426 189.209 30.748C189.111 31.334 188.955 31.9102 188.74 32.4766C188.545 33.043 188.271 33.5703 187.92 34.0586C187.529 34.0391 187.119 34.0781 186.689 34.1758C186.279 34.2734 185.908 34.3711 185.576 34.4688C185.42 34.3711 185.264 34.2734 185.107 34.1758C184.971 34.0977 184.795 34.0488 184.58 34.0293C184.639 33.7949 184.58 33.5508 184.404 33.2969C184.248 33.043 184.082 32.7988 183.906 32.5645C183.75 32.3105 183.643 32.0664 183.584 31.832C183.545 31.5781 183.662 31.3535 183.936 31.1582C183.779 31.0215 183.701 30.8066 183.701 30.5137C183.779 30.5918 183.877 30.6309 183.994 30.6309C183.955 30.2793 183.994 29.8594 184.111 29.3711C184.248 28.8828 184.355 28.4043 184.434 27.9355C184.531 27.4473 184.551 27.0078 184.492 26.6172C184.434 26.207 184.199 25.9141 183.789 25.7383ZM191.406 18.8828C191.328 19.0977 191.26 19.293 191.201 19.4688C191.162 19.625 191.113 19.7715 191.055 19.9082C190.996 20.0449 190.928 20.1816 190.85 20.3184C190.791 20.4551 190.723 20.6113 190.645 20.7871C190.684 20.9043 190.762 20.9922 190.879 21.0508C190.996 21.1094 191.074 21.1973 191.113 21.3145C191.387 21.1777 191.66 21.0801 191.934 21.0215C192.207 20.9434 192.48 20.8848 192.754 20.8457C193.027 20.8066 193.301 20.7578 193.574 20.6992C193.848 20.6406 194.131 20.543 194.424 20.4062C194.717 20.2695 195.02 20.1621 195.332 20.084C195.664 19.9863 195.986 19.8887 196.299 19.791C196.611 19.6934 196.914 19.5859 197.207 19.4688C197.5 19.332 197.754 19.1562 197.969 18.9414C197.695 18.6875 197.285 18.4629 196.738 18.2676C196.191 18.0723 195.596 17.9551 194.951 17.916C194.326 17.8574 193.691 17.8965 193.047 18.0332C192.422 18.1699 191.875 18.4531 191.406 18.8828ZM201.572 34.3516C201.299 34.1758 201.084 33.9512 200.928 33.6777C200.752 33.4043 200.615 33.1113 200.518 32.7988C200.4 32.4863 200.312 32.1641 200.254 31.832C200.176 31.4805 200.098 31.1484 200.02 30.8359C200.02 30.5625 200.078 30.3672 200.195 30.25C200.312 30.1133 200.439 29.9863 200.576 29.8691C201.045 29.8496 201.465 29.8105 201.836 29.752C202.207 29.6934 202.568 29.6348 202.92 29.5762C203.271 29.5176 203.623 29.4688 203.975 29.4297C204.326 29.3711 204.707 29.3418 205.117 29.3418C205.41 28.7363 205.684 28.1602 205.938 27.6133C206.191 27.0469 206.436 26.5098 206.67 26.002C206.787 25.5137 206.934 25.0645 207.109 24.6543C207.305 24.2246 207.49 23.8242 207.666 23.4531C207.842 23.0625 207.998 22.6816 208.135 22.3105C208.271 21.9199 208.359 21.5098 208.398 21.0801C208.633 20.3965 208.838 19.7715 209.014 19.2051C209.209 18.6191 209.355 17.9258 209.453 17.125C208.711 17.2422 208.115 17.3594 207.666 17.4766C207.217 17.5742 206.895 17.6719 206.699 17.7695C206.309 17.75 205.996 17.6719 205.762 17.5352C205.547 17.3984 205.371 17.2324 205.234 17.0371C205.098 16.8418 204.98 16.6172 204.883 16.3633C204.785 16.1094 204.668 15.8457 204.531 15.5723C204.609 15.3965 204.629 15.1426 204.59 14.8105C204.551 14.459 204.434 14.2051 204.238 14.0488C204.395 14.0098 204.512 13.8828 204.59 13.668C204.668 13.4336 204.678 13.2578 204.619 13.1406C204.951 13.043 205.303 12.9844 205.674 12.9648C206.045 12.9258 206.406 12.8965 206.758 12.877C207.129 12.8379 207.48 12.7988 207.812 12.7598C208.145 12.7012 208.428 12.5938 208.662 12.4375C209.678 12.3984 210.732 12.3594 211.826 12.3203C212.939 12.2812 213.965 12.2324 214.902 12.1738C215.254 12.291 215.654 12.3496 216.104 12.3496C216.572 12.3496 217.031 12.3789 217.48 12.4375C217.949 12.4961 218.359 12.623 218.711 12.8184C219.082 13.0137 219.336 13.3555 219.473 13.8438C219.766 13.8828 219.98 13.9609 220.117 14.0781C220.273 14.1953 220.371 14.3418 220.41 14.5176C220.449 14.6738 220.459 14.8594 220.439 15.0742C220.439 15.2695 220.439 15.4648 220.439 15.6602C220.127 15.8945 219.727 16.0898 219.238 16.2461C218.77 16.3828 218.252 16.5 217.686 16.5977C217.119 16.6758 216.523 16.7344 215.898 16.7734C215.293 16.793 214.697 16.8125 214.111 16.832C214.014 17.4766 213.838 18.2383 213.584 19.1172C213.35 19.9766 213.105 20.8262 212.852 21.666C212.598 22.4863 212.373 23.2285 212.178 23.8926C212.002 24.5371 211.924 24.957 211.943 25.1523C211.748 25.6016 211.582 25.9824 211.445 26.2949C211.328 26.6074 211.211 26.9004 211.094 27.1738C210.996 27.4473 210.889 27.7207 210.771 27.9941C210.674 28.248 210.547 28.541 210.391 28.873H212.383C212.422 29.0879 212.51 29.2344 212.646 29.3125C212.783 29.3906 212.93 29.459 213.086 29.5176C213.242 29.5762 213.379 29.6543 213.496 29.752C213.633 29.8301 213.701 29.9668 213.701 30.1621C214.072 30.2598 214.307 30.4062 214.404 30.6016C214.502 30.7969 214.521 31.0117 214.463 31.2461C214.424 31.4609 214.326 31.6855 214.17 31.9199C214.033 32.1543 213.896 32.3594 213.76 32.5352C213.584 32.4961 213.418 32.5449 213.262 32.6816C213.105 32.7988 212.959 32.9355 212.822 33.0918C212.256 33.0137 211.699 33.0039 211.152 33.0625C210.605 33.1211 210.098 33.1699 209.629 33.209C209.531 33.2285 209.492 33.2871 209.512 33.3848C209.531 33.4629 209.512 33.5215 209.453 33.5605C208.848 33.3652 208.223 33.2871 207.578 33.3262C206.953 33.3652 206.309 33.4629 205.645 33.6191C205 33.7559 204.336 33.9023 203.652 34.0586C202.969 34.2344 202.275 34.332 201.572 34.3516ZM219.268 31.4512C218.701 31.0215 218.232 30.4844 217.861 29.8398C217.51 29.1953 217.227 28.5117 217.012 27.7891C216.816 27.0664 216.68 26.3242 216.602 25.5625C216.543 24.7812 216.523 24.0391 216.543 23.3359C216.719 22.8086 216.934 22.3301 217.188 21.9004C217.441 21.4512 217.725 21.0312 218.037 20.6406C218.35 20.2305 218.672 19.8496 219.004 19.498C219.355 19.127 219.697 18.7559 220.029 18.3848C220.146 18.3848 220.254 18.4141 220.352 18.4727C220.43 18.2578 220.547 18.0723 220.703 17.916C220.859 17.7598 221.025 17.623 221.201 17.5059C221.377 17.3691 221.553 17.2422 221.729 17.125C221.904 16.9883 222.051 16.832 222.168 16.6562C222.656 16.5391 223.086 16.373 223.457 16.1582C223.848 15.9434 224.219 15.709 224.57 15.4551C224.922 15.2012 225.283 14.9668 225.654 14.752C226.025 14.5371 226.455 14.3711 226.943 14.2539C227.119 14.0586 227.334 13.8926 227.588 13.7559C227.861 13.6191 228.125 13.4922 228.379 13.375C228.652 13.2578 228.906 13.1309 229.141 12.9941C229.395 12.8574 229.6 12.6719 229.756 12.4375C229.873 12.5938 230.039 12.6523 230.254 12.6133C230.469 12.5547 230.664 12.4961 230.84 12.4375C230.957 12.418 231.055 12.4375 231.133 12.4961C231.211 12.5547 231.279 12.623 231.338 12.7012C231.416 12.7598 231.475 12.7988 231.514 12.8184C231.572 12.8379 231.631 12.7793 231.689 12.6426C231.846 12.6621 231.885 12.7305 231.807 12.8477C231.748 12.9648 231.709 13.043 231.689 13.082C231.885 13.043 232.041 13.082 232.158 13.1992C232.295 13.2969 232.5 13.3652 232.773 13.4043C232.871 13.502 232.9 13.5801 232.861 13.6387C232.822 13.6973 232.793 13.7949 232.773 13.9316C233.477 14.1465 233.926 14.4883 234.121 14.957C234.316 15.4063 234.336 15.8848 234.18 16.3926C234.023 16.8809 233.73 17.3398 233.301 17.7695C232.891 18.1797 232.432 18.4531 231.924 18.5898C231.318 18.7461 230.752 18.9023 230.225 19.0586C229.717 19.2148 229.219 19.3906 228.73 19.5859C228.262 19.7812 227.812 20.0156 227.383 20.2891C226.973 20.543 226.611 20.8457 226.299 21.1973C225.752 21.3535 225.254 21.5684 224.805 21.8418C224.375 22.1152 223.965 22.418 223.574 22.75C223.203 23.082 222.842 23.4336 222.49 23.8047C222.139 24.1562 221.787 24.5078 221.436 24.8594C221.436 25.1914 221.377 25.4453 221.26 25.6211C221.143 25.7969 221.016 25.9727 220.879 26.1484C220.918 26.5195 220.996 26.8418 221.113 27.1152C221.25 27.3691 221.387 27.6328 221.523 27.9062C223.086 28.375 224.736 28.668 226.475 28.7852C228.232 28.8828 229.971 28.9414 231.689 28.9609C231.865 29.1953 232.061 29.4199 232.275 29.6348C232.51 29.8301 232.715 30.0352 232.891 30.25C233.086 30.4648 233.232 30.7188 233.33 31.0117C233.447 31.2852 233.477 31.6172 233.418 32.0078C233.086 32.3398 232.725 32.6621 232.334 32.9746C231.943 33.2676 231.553 33.5605 231.162 33.8535C230.986 33.873 230.771 33.873 230.518 33.8535C230.283 33.834 230.029 33.8242 229.756 33.8242C229.502 33.8242 229.238 33.8438 228.965 33.8828C228.711 33.9023 228.467 33.9609 228.232 34.0586C227.002 34.0195 225.742 33.873 224.453 33.6191C223.164 33.3457 221.973 33.0234 220.879 32.6523C220.664 32.3984 220.439 32.1641 220.205 31.9492C219.971 31.7148 219.658 31.5488 219.268 31.4512ZM235.469 28.6387C235.488 28.5605 235.498 28.502 235.498 28.4629C235.518 28.4238 235.488 28.375 235.41 28.3164C235.371 28.1797 235.4 28.0918 235.498 28.0527C235.596 28.0137 235.693 27.9746 235.791 27.9355C235.889 26.7637 236.084 25.6992 236.377 24.7422C236.689 23.7656 237.021 22.8184 237.373 21.9004C237.744 20.9824 238.105 20.0645 238.457 19.1465C238.828 18.209 239.131 17.1934 239.365 16.0996C239.619 15.8457 239.824 15.543 239.98 15.1914C240.156 14.8398 240.322 14.4883 240.479 14.1367C240.654 13.7656 240.85 13.4141 241.064 13.082C241.299 12.75 241.611 12.4766 242.002 12.2617C242.178 12.2812 242.334 12.3203 242.471 12.3789C242.627 12.418 242.773 12.4668 242.91 12.5254C243.047 12.584 243.193 12.6328 243.35 12.6719C243.506 12.7109 243.672 12.7305 243.848 12.7305C243.926 12.8281 243.994 12.9453 244.053 13.082C244.111 13.1992 244.189 13.3066 244.287 13.4043L244.814 13.3164C245.068 13.5313 245.293 13.8047 245.488 14.1367C245.684 14.4492 245.82 14.7812 245.898 15.1328C245.977 15.4648 245.967 15.7969 245.869 16.1289C245.771 16.4414 245.547 16.6855 245.195 16.8613C245.215 16.9785 245.215 17.0664 245.195 17.125C245.176 17.1836 245.146 17.2422 245.107 17.3008C245.088 17.3398 245.078 17.3887 245.078 17.4473C245.078 17.4863 245.117 17.5449 245.195 17.623C244.98 17.7988 244.785 18.0234 244.609 18.2969C244.434 18.5508 244.287 18.8242 244.17 19.1172C244.053 19.4102 243.955 19.7031 243.877 19.9961C243.818 20.2891 243.779 20.5625 243.76 20.8164C244.326 20.2305 244.99 19.6836 245.752 19.1758C246.514 18.668 247.178 18.1895 247.744 17.7402C248.193 17.4277 248.584 17.1348 248.916 16.8613C249.268 16.5684 249.619 16.3047 249.971 16.0703C250.322 15.8164 250.684 15.582 251.055 15.3672C251.445 15.1328 251.836 14.8789 252.227 14.6055C252.422 14.5273 252.568 14.5078 252.666 14.5469C252.783 14.5859 252.891 14.6348 252.988 14.6934C253.008 14.5566 252.979 14.4785 252.9 14.459C252.822 14.4199 252.793 14.3223 252.812 14.166C253.145 14.0684 253.438 13.9512 253.691 13.8145C253.965 13.6777 254.248 13.5508 254.541 13.4336C254.736 13.6484 254.932 13.8828 255.127 14.1367C255.322 14.3711 255.586 14.498 255.918 14.5176C256.035 14.7715 256.172 14.9668 256.328 15.1035C256.504 15.2207 256.67 15.3379 256.826 15.4551C257.002 15.5723 257.148 15.7188 257.266 15.8945C257.383 16.0508 257.451 16.3047 257.471 16.6562C257.393 16.8125 257.295 16.9883 257.178 17.1836C257.08 17.3594 256.992 17.584 256.914 17.8574C256.445 18.2871 255.967 18.668 255.479 19C255.01 19.3125 254.521 19.6152 254.014 19.9082C253.525 20.2012 253.018 20.5039 252.49 20.8164C251.982 21.1289 251.465 21.4902 250.938 21.9004C250.82 22.0762 250.674 22.2324 250.498 22.3691C250.322 22.5059 250.137 22.6426 249.941 22.7793C249.766 22.8965 249.59 23.0234 249.414 23.1602C249.258 23.2969 249.131 23.4629 249.033 23.6582C248.955 23.6582 248.887 23.668 248.828 23.6875C248.77 23.6875 248.701 23.6973 248.623 23.7168C248.545 23.873 248.428 24 248.271 24.0977C248.135 24.1953 248.037 24.3223 247.979 24.4785C248.33 25.2402 248.789 25.8164 249.355 26.207C249.922 26.5977 250.557 26.8809 251.26 27.0566C251.963 27.2324 252.725 27.3301 253.545 27.3496C254.365 27.3691 255.215 27.3789 256.094 27.3789C256.191 27.3594 256.23 27.3105 256.211 27.2324C256.211 27.1348 256.27 27.0957 256.387 27.1152C256.68 27.2129 256.924 27.3301 257.119 27.4668C257.314 27.6035 257.5 27.75 257.676 27.9062C257.852 28.0625 258.018 28.2285 258.174 28.4043C258.35 28.5605 258.545 28.7266 258.76 28.9023C258.721 29.8203 258.447 30.5723 257.939 31.1582C257.451 31.7246 256.797 32.1836 255.977 32.5352C254.844 32.5742 253.857 32.5449 253.018 32.4473C252.178 32.3496 251.348 32.1348 250.527 31.8027C250.469 31.7832 250.41 31.7246 250.352 31.627C250.312 31.5293 250.273 31.4609 250.234 31.4219C250.078 31.3242 249.902 31.2852 249.707 31.3047C249.512 31.3242 249.346 31.3047 249.209 31.2461C249.033 31.168 248.74 30.9922 248.33 30.7188C247.939 30.4453 247.578 30.1914 247.246 29.957C246.836 29.625 246.436 29.3027 246.045 28.9902C245.674 28.6582 245.342 28.2969 245.049 27.9062C244.99 27.8086 244.902 27.7598 244.785 27.7598C244.688 27.7598 244.59 27.7305 244.492 27.6719C243.809 28.1016 243.232 28.6387 242.764 29.2832C242.314 29.9082 241.875 30.5527 241.445 31.2168C241.016 31.8613 240.557 32.4766 240.068 33.0625C239.6 33.6289 239.004 34.0684 238.281 34.3809C238.066 34.3809 237.881 34.3418 237.725 34.2637C237.568 34.2051 237.422 34.1172 237.285 34C237.148 33.9023 237.012 33.8047 236.875 33.707C236.738 33.6094 236.582 33.541 236.406 33.502C236.406 33.2285 236.348 32.9746 236.23 32.7402C236.133 32.4863 236.025 32.2617 235.908 32.0664C235.811 31.8516 235.732 31.6465 235.674 31.4512C235.635 31.2559 235.693 31.0605 235.85 30.8652C235.635 30.6895 235.43 30.543 235.234 30.4258C235.371 30.2891 235.43 30.1621 235.41 30.0449C235.41 29.9277 235.381 29.8105 235.322 29.6934C235.264 29.5762 235.215 29.459 235.176 29.3418C235.156 29.2051 235.195 29.0586 235.293 28.9023C235.371 28.8828 235.4 28.8438 235.381 28.7852C235.381 28.7266 235.41 28.6777 235.469 28.6387ZM259.814 33.0039C259.658 32.8477 259.541 32.6621 259.463 32.4473C259.404 32.2324 259.248 32.0566 258.994 31.9199C258.955 31.627 258.896 31.2949 258.818 30.9238C258.76 30.5332 258.691 30.1426 258.613 29.752C258.555 29.3418 258.506 28.9414 258.467 28.5508C258.447 28.1406 258.467 27.7695 258.525 27.4375C258.564 27.2617 258.623 27.0957 258.701 26.9395C258.799 26.7832 258.887 26.6367 258.965 26.5C259.062 26.3438 259.131 26.1875 259.17 26.0312C259.229 25.875 259.238 25.7188 259.199 25.5625C259.316 25.543 259.385 25.4844 259.404 25.3867C259.443 25.2695 259.541 25.2305 259.697 25.2695C259.834 24.8398 259.98 24.4395 260.137 24.0684C260.293 23.6973 260.459 23.3359 260.635 22.9844C260.811 22.6328 260.986 22.2812 261.162 21.9297C261.357 21.5586 261.533 21.1484 261.689 20.6992C261.357 20.3867 261.113 20.0547 260.957 19.7031C260.82 19.332 260.713 18.9609 260.635 18.5898C260.557 18.2188 260.498 17.8477 260.459 17.4766C260.42 17.0859 260.342 16.6953 260.225 16.3047C260.459 15.9531 260.742 15.6699 261.074 15.4551C261.406 15.2207 261.768 15.0352 262.158 14.8984C262.568 14.7422 263.008 14.625 263.477 14.5469C263.945 14.4492 264.443 14.3418 264.971 14.2246C265.908 13.9316 266.748 13.707 267.49 13.5508C268.232 13.375 268.955 13.2383 269.658 13.1406C270.361 13.0234 271.094 12.9258 271.855 12.8477C272.617 12.75 273.496 12.6133 274.492 12.4375C274.512 12.4961 274.541 12.5254 274.58 12.5254C274.639 12.5254 274.707 12.5254 274.785 12.5254C274.844 12.6621 274.951 12.7305 275.107 12.7305C275.107 12.6719 275.098 12.623 275.078 12.584C275.078 12.5254 275.078 12.4766 275.078 12.4375C275.117 12.4375 275.166 12.4473 275.225 12.4668C275.303 12.4863 275.361 12.5059 275.4 12.5254C275.459 12.5449 275.508 12.5449 275.547 12.5254C275.586 12.4863 275.596 12.418 275.576 12.3203C275.811 12.7305 276.113 13.0723 276.484 13.3457C276.855 13.5996 277.266 13.8242 277.715 14.0195C277.734 14.1953 277.734 14.3223 277.715 14.4004C277.715 14.4785 277.705 14.5566 277.686 14.6348C277.666 14.6934 277.656 14.7715 277.656 14.8691C277.656 14.9473 277.676 15.0645 277.715 15.2207C277.402 15.748 277.041 16.1582 276.631 16.4512C276.24 16.7441 275.82 16.9688 275.371 17.125C274.922 17.2812 274.443 17.3984 273.936 17.4766C273.447 17.5547 272.939 17.6426 272.412 17.7402C271.904 17.8184 271.387 17.9355 270.859 18.0918C270.332 18.248 269.814 18.4824 269.307 18.7949C269.15 18.7363 269.004 18.7168 268.867 18.7363C268.75 18.7363 268.623 18.7559 268.486 18.7949C268.35 18.834 268.193 18.873 268.018 18.9121C267.861 18.9512 267.666 18.9512 267.432 18.9121C267.275 19.0488 267.09 19.1465 266.875 19.2051C266.68 19.2637 266.475 19.3223 266.26 19.3809C266.357 19.5957 266.396 19.8105 266.377 20.0254C266.377 20.2402 266.406 20.4258 266.465 20.582C267.285 20.6602 268.193 20.6602 269.189 20.582C270.186 20.4844 271.162 20.416 272.119 20.377C272.139 20.4746 272.129 20.543 272.09 20.582C272.051 20.6211 272.031 20.6895 272.031 20.7871C272.207 20.9043 272.373 21.0508 272.529 21.2266C272.686 21.4023 272.842 21.5781 272.998 21.7539C273.174 21.9102 273.35 22.0469 273.525 22.1641C273.701 22.2617 273.906 22.3008 274.141 22.2812C274.238 22.4766 274.307 22.6816 274.346 22.8965C274.385 23.1113 274.355 23.3359 274.258 23.5703C273.867 23.8242 273.486 24.0879 273.115 24.3613C272.744 24.6152 272.354 24.8496 271.943 25.0645C271.553 25.2793 271.123 25.4551 270.654 25.5918C270.186 25.7285 269.678 25.7871 269.131 25.7676C269.033 25.7676 268.945 25.7676 268.867 25.7676C268.809 25.7676 268.73 25.7285 268.633 25.6504C268.438 25.748 268.174 25.7871 267.842 25.7676C267.529 25.7285 267.266 25.7578 267.051 25.8555C266.777 25.7578 266.455 25.709 266.084 25.709C265.732 25.709 265.42 25.6602 265.146 25.5625C264.795 26.0703 264.463 26.6074 264.15 27.1738C263.838 27.7207 263.564 28.3066 263.33 28.9316C264.131 29.0488 264.795 29.0977 265.322 29.0781C265.85 29.0586 266.348 29.0195 266.816 28.9609C267.285 28.9023 267.764 28.8438 268.252 28.7852C268.76 28.7266 269.375 28.707 270.098 28.7266C270.586 28.4922 271.143 28.3359 271.768 28.2578C272.412 28.1602 273.008 28.0234 273.555 27.8477C273.75 27.9062 273.916 28.0234 274.053 28.1992C274.189 28.3555 274.316 28.5215 274.434 28.6973C274.57 28.8535 274.707 28.9902 274.844 29.1074C274.98 29.2246 275.156 29.2637 275.371 29.2246C275.469 29.3223 275.527 29.4395 275.547 29.5762C275.586 29.7129 275.615 29.8398 275.635 29.957C275.674 30.0742 275.723 30.1719 275.781 30.25C275.84 30.3086 275.947 30.3281 276.104 30.3086C275.732 31.0703 275.312 31.6562 274.844 32.0664C274.395 32.4766 273.877 32.7988 273.291 33.0332C272.725 33.248 272.08 33.4141 271.357 33.5312C270.654 33.6289 269.863 33.7559 268.984 33.9121C268.77 33.9512 268.584 33.9512 268.428 33.9121C268.291 33.8535 268.145 33.8242 267.988 33.8242C267.441 33.9219 266.787 34.0195 266.025 34.1172C265.283 34.2148 264.531 34.2539 263.77 34.2344C263.008 34.2148 262.275 34.1172 261.572 33.9414C260.869 33.7656 260.283 33.4531 259.814 33.0039ZM277.51 31.4805C277.412 31.5 277.324 31.4316 277.246 31.2754C277.168 31.0996 277.08 30.9336 276.982 30.7773H277.305C277.168 30.3477 277.129 29.957 277.188 29.6055C277.266 29.2344 277.354 28.8828 277.451 28.5508C277.549 28.1992 277.627 27.8672 277.686 27.5547C277.764 27.2227 277.734 26.8809 277.598 26.5293C277.695 26.5879 277.764 26.5684 277.803 26.4707C277.861 26.3535 277.9 26.2168 277.92 26.0605C277.959 25.8848 277.969 25.709 277.949 25.5332C277.949 25.3379 277.939 25.1816 277.92 25.0645C278.174 24.459 278.369 23.834 278.506 23.1895C278.662 22.5449 278.799 21.9102 278.916 21.2852C279.033 20.6406 279.16 20.0254 279.297 19.4395C279.453 18.834 279.648 18.2676 279.883 17.7402C280.156 17.7012 280.439 17.7402 280.732 17.8574C281.045 17.9551 281.25 18.082 281.348 18.2383C281.953 17.7695 282.49 17.2031 282.959 16.5391C283.428 15.875 283.896 15.2305 284.365 14.6055C284.854 13.9609 285.4 13.3945 286.006 12.9062C286.611 12.418 287.363 12.125 288.262 12.0273C288.73 12.3594 289.258 12.7207 289.844 13.1113C290.43 13.4824 290.908 13.9512 291.279 14.5176C291.436 14.6152 291.582 14.7227 291.719 14.8398C291.875 14.9375 292.031 15.0352 292.188 15.1328V15.5723C292.461 15.8262 292.686 16.1289 292.861 16.4805C293.057 16.8125 293.223 17.1738 293.359 17.5645C293.516 17.9355 293.662 18.3164 293.799 18.707C293.936 19.0977 294.092 19.459 294.268 19.791C294.229 19.9082 294.209 20.0156 294.209 20.1133C294.229 20.1914 294.248 20.2793 294.268 20.377C294.307 20.4551 294.336 20.5527 294.355 20.6699C294.375 20.7676 294.385 20.8945 294.385 21.0508C294.307 22.0859 293.965 22.9258 293.359 23.5703C292.773 24.1953 292.051 24.7129 291.191 25.123C290.352 25.5137 289.453 25.8555 288.496 26.1484C287.539 26.4219 286.67 26.7246 285.889 27.0566C285.889 27.1348 285.928 27.1738 286.006 27.1738C286.104 27.1738 286.133 27.2324 286.094 27.3496C286.68 27.7012 287.129 27.9844 287.441 28.1992C287.773 28.4141 288.076 28.5996 288.35 28.7559C288.643 28.8926 288.955 29.0098 289.287 29.1074C289.639 29.2051 290.117 29.3223 290.723 29.459C291.328 29.5957 291.797 29.7129 292.129 29.8105C292.48 29.8887 292.793 29.957 293.066 30.0156C293.34 30.0547 293.633 30.0938 293.945 30.1328C294.258 30.1719 294.678 30.2207 295.205 30.2793C295.42 30.4941 295.596 30.748 295.732 31.041C295.869 31.334 295.967 31.627 296.025 31.9199C296.084 32.2129 296.094 32.4961 296.055 32.7695C296.035 33.0234 295.957 33.2285 295.82 33.3848C295.84 33.4629 295.889 33.502 295.967 33.502C296.064 33.4824 296.162 33.4824 296.26 33.502C296.123 33.5996 296.006 33.7168 295.908 33.8535C295.811 33.9902 295.713 34.127 295.615 34.2637C295.518 34.4004 295.4 34.5273 295.264 34.6445C295.146 34.7617 294.99 34.8301 294.795 34.8496C294.092 35.123 293.193 35.1328 292.1 34.8789C291.006 34.625 289.609 34.1758 287.91 33.5312C287.07 33.2188 286.387 32.9355 285.859 32.6816C285.332 32.4277 284.873 32.1836 284.482 31.9492C284.092 31.6953 283.73 31.4316 283.398 31.1582C283.066 30.8652 282.686 30.5234 282.256 30.1328C282.197 30.1523 282.158 30.1914 282.139 30.25C282.139 30.3086 282.109 30.3477 282.051 30.3672C281.953 31.1484 281.797 31.7832 281.582 32.2715C281.387 32.7598 281.094 33.2578 280.703 33.7656C280.391 33.707 280.176 33.7363 280.059 33.8535C279.961 33.9707 279.834 34.0781 279.678 34.1758C279.482 34.2148 279.336 34.2051 279.238 34.1465C279.141 34.1074 279.053 34.0586 278.975 34C278.896 33.9414 278.809 33.8828 278.711 33.8242C278.613 33.7656 278.457 33.7461 278.242 33.7656C278.184 33.5898 278.125 33.4238 278.066 33.2676C278.008 33.0918 277.852 33.0137 277.598 33.0332C277.656 32.8574 277.676 32.7109 277.656 32.5938C277.637 32.457 277.607 32.3398 277.568 32.2422C277.529 32.125 277.49 32.0078 277.451 31.8906C277.432 31.7734 277.451 31.6367 277.51 31.4805ZM287.295 18.0918C287.041 18.4629 286.758 18.8047 286.445 19.1172C286.133 19.4102 285.82 19.7227 285.508 20.0547C285.215 20.3672 284.951 20.7188 284.717 21.1094C284.482 21.4805 284.316 21.9297 284.219 22.457C285.039 22.3594 285.898 22.1348 286.797 21.7832C287.695 21.4121 288.545 21.0605 289.346 20.7285C289.248 20.0059 288.994 19.4297 288.584 19C288.174 18.5508 287.744 18.248 287.295 18.0918Z" fill="#3D475D"/>
<path d="M71.3184 55.7383C71.3379 55.6602 71.377 55.6309 71.4355 55.6504C71.5137 55.6504 71.582 55.6406 71.6406 55.6211C71.4844 55.4648 71.3867 55.2598 71.3477 55.0059C71.3086 54.7324 71.2109 54.5078 71.0547 54.332C71.0938 54.2344 71.123 54.1367 71.1426 54.0391C71.1816 53.9414 71.2695 53.9023 71.4062 53.9219C71.3477 53.4922 71.3574 53.0918 71.4355 52.7207C71.5137 52.3496 71.6309 51.998 71.7871 51.666C71.9629 51.334 72.1582 51.0117 72.373 50.6992C72.6074 50.3672 72.832 50.0352 73.0469 49.7031C73.2227 49.6641 73.3301 49.6836 73.3691 49.7617C73.4082 49.8203 73.4766 49.8008 73.5742 49.7031C73.8867 49.4883 74.1016 49.2539 74.2188 49C74.3359 48.7266 74.3945 48.4336 74.3945 48.1211C74.5703 47.6133 74.7656 47.1152 74.9805 46.627C75.2148 46.1191 75.4785 45.6504 75.7715 45.2207C76.0645 44.791 76.377 44.4199 76.709 44.1074C77.041 43.7754 77.4023 43.5215 77.793 43.3457C78.0664 43.1113 78.4082 42.8965 78.8184 42.7012C79.248 42.5059 79.6973 42.3594 80.166 42.2617C80.6543 42.1445 81.1523 42.0859 81.6602 42.0859C82.168 42.0664 82.6367 42.1152 83.0664 42.2324C83.1641 42.2715 83.2227 42.252 83.2422 42.1738C83.2617 42.0762 83.3105 42.0273 83.3887 42.0273C84.3652 42.1445 85.2344 42.3398 85.9961 42.6133C86.7773 42.8867 87.4414 43.2676 87.9883 43.7559C88.3594 44.3418 88.7109 44.9766 89.043 45.6602C89.375 46.3242 89.6289 47.0273 89.8047 47.7695C90 48.4922 90.0879 49.2441 90.0684 50.0254C90.0488 50.8066 89.8828 51.5879 89.5703 52.3691C88.8867 53.2285 88.0566 53.9219 87.0801 54.4492C86.1035 54.957 85.0488 55.3867 83.916 55.7383C82.8027 56.0703 81.6406 56.3438 80.4297 56.5586C79.2383 56.7734 78.0762 57.0078 76.9434 57.2617C76.9629 57.7891 76.9629 58.3555 76.9434 58.9609C76.9238 59.5469 76.8555 60.1426 76.7383 60.748C76.6406 61.334 76.4844 61.9102 76.2695 62.4766C76.0742 63.043 75.8008 63.5703 75.4492 64.0586C75.0586 64.0391 74.6484 64.0781 74.2188 64.1758C73.8086 64.2734 73.4375 64.3711 73.1055 64.4688C72.9492 64.3711 72.793 64.2734 72.6367 64.1758C72.5 64.0977 72.3242 64.0488 72.1094 64.0293C72.168 63.7949 72.1094 63.5508 71.9336 63.2969C71.7773 63.043 71.6113 62.7988 71.4355 62.5645C71.2793 62.3105 71.1719 62.0664 71.1133 61.832C71.0742 61.5781 71.1914 61.3535 71.4648 61.1582C71.3086 61.0215 71.2305 60.8066 71.2305 60.5137C71.3086 60.5918 71.4062 60.6309 71.5234 60.6309C71.4844 60.2793 71.5234 59.8594 71.6406 59.3711C71.7773 58.8828 71.8848 58.4043 71.9629 57.9355C72.0605 57.4473 72.0801 57.0078 72.0215 56.6172C71.9629 56.207 71.7285 55.9141 71.3184 55.7383ZM78.9355 48.8828C78.8574 49.0977 78.7891 49.293 78.7305 49.4688C78.6914 49.625 78.6426 49.7715 78.584 49.9082C78.5254 50.0449 78.457 50.1816 78.3789 50.3184C78.3203 50.4551 78.252 50.6113 78.1738 50.7871C78.2129 50.9043 78.291 50.9922 78.4082 51.0508C78.5254 51.1094 78.6035 51.1973 78.6426 51.3145C78.916 51.1777 79.1895 51.0801 79.4629 51.0215C79.7363 50.9434 80.0098 50.8848 80.2832 50.8457C80.5566 50.8066 80.8301 50.7578 81.1035 50.6992C81.377 50.6406 81.6602 50.543 81.9531 50.4062C82.2461 50.2695 82.5488 50.1621 82.8613 50.084C83.1934 49.9863 83.5156 49.8887 83.8281 49.791C84.1406 49.6934 84.4434 49.5859 84.7363 49.4688C85.0293 49.332 85.2832 49.1562 85.498 48.9414C85.2246 48.6875 84.8145 48.4629 84.2676 48.2676C83.7207 48.0723 83.125 47.9551 82.4805 47.916C81.8555 47.8574 81.2207 47.8965 80.5762 48.0332C79.9512 48.1699 79.4043 48.4531 78.9355 48.8828ZM87.8418 61.2168L88.2227 60.9238L88.252 60.3086C88.7402 59.1172 89.2383 57.9746 89.7461 56.8809C90.2734 55.7871 90.8203 54.6641 91.3867 53.5117C91.5625 53.1406 91.7383 52.7695 91.9141 52.3984C92.1094 52.0273 92.2949 51.6465 92.4707 51.2559C92.4512 51.1777 92.4414 51.0996 92.4414 51.0215C92.4414 50.9238 92.4609 50.8164 92.5 50.6992C92.7734 50.3086 92.9883 49.957 93.1445 49.6445C93.3203 49.332 93.4863 49.0098 93.6426 48.6777C93.8184 48.2871 94.0039 47.8965 94.1992 47.5059C94.4141 47.1152 94.6777 46.7344 94.9902 46.3633L95.1953 46.0703L95.5176 46.0996C95.5957 46.0605 95.6738 46.0312 95.752 46.0117C95.8496 45.9727 95.9668 45.9531 96.1035 45.9531L96.6309 46.041C97.2754 45.748 97.8418 45.3281 98.3301 44.7812C98.8379 44.2148 99.3457 43.541 99.8535 42.7598L100.205 42.2617L100.674 42.5547C100.771 42.6133 100.928 42.6719 101.143 42.7305C101.357 42.7891 101.582 42.8574 101.816 42.9355C102.227 43.0332 102.627 43.1504 103.018 43.2871C103.408 43.4043 103.711 43.5703 103.926 43.7852L104.072 44.0488C104.111 44.2637 104.141 44.459 104.16 44.6348C104.199 44.8105 104.238 44.9863 104.277 45.1621C104.355 45.5723 104.424 45.9824 104.482 46.3926C104.541 46.7832 104.58 47.2227 104.6 47.7109C104.697 48.1016 104.785 48.502 104.863 48.9121C104.961 49.3027 105.049 49.6934 105.127 50.084C105.225 50.6504 105.332 51.1973 105.449 51.7246C105.566 52.2324 105.723 52.7207 105.918 53.1895C106.113 53.1895 106.23 53.1992 106.27 53.2188C106.504 53.1211 106.777 53.0625 107.09 53.043L107.471 53.0137L107.588 53.3652C107.627 53.4238 107.676 53.4824 107.734 53.541C107.793 53.5996 107.861 53.6582 107.939 53.7168C108.252 53.7363 108.477 53.8047 108.613 53.9219C108.77 54.0195 108.896 54.1172 108.994 54.2148C109.033 54.2539 109.082 54.3027 109.141 54.3613C109.199 54.4004 109.248 54.4297 109.287 54.4492L109.814 54.6543L109.521 55.2109C109.307 55.6211 108.975 56.0215 108.525 56.4121C108.096 56.8027 107.607 57.125 107.061 57.3789C107.1 57.5156 107.119 57.6426 107.119 57.7598C107.139 57.877 107.168 58.0137 107.207 58.1699C107.285 58.5605 107.344 58.9707 107.383 59.4004C107.441 59.8105 107.441 60.2402 107.383 60.6895C107.188 61.1973 106.953 61.6562 106.68 62.0664C106.426 62.457 106.113 62.8184 105.742 63.1504C105.391 63.4629 104.99 63.7266 104.541 63.9414C104.092 64.1367 103.623 64.2441 103.135 64.2637C102.861 64.2051 102.656 64.1367 102.52 64.0586C102.402 63.9805 102.295 63.9023 102.197 63.8242C102.041 63.707 101.914 63.6289 101.816 63.5898L101.436 63.4141L101.553 62.9746C101.611 62.8184 101.602 62.6816 101.523 62.5645C101.465 62.4473 101.328 62.291 101.113 62.0957C101.035 62.0371 100.967 61.9785 100.908 61.9199C100.85 61.8418 100.781 61.7637 100.703 61.6855L100.117 61.0117L101.084 60.748C101.67 60.5918 102.061 60.3965 102.256 60.1621C102.451 59.9082 102.529 59.4688 102.49 58.8438C102.002 58.7461 101.602 58.7363 101.289 58.8145C100.977 58.873 100.664 58.9414 100.352 59.0195C99.9023 59.1367 99.4629 59.2441 99.0332 59.3418C98.6035 59.4199 98.1348 59.459 97.627 59.459C97.2949 59.459 96.9434 59.4297 96.5723 59.3711L96.25 59.3418L96.1621 59.0195C96.1621 58.9805 96.1328 58.9414 96.0742 58.9023C96.0352 58.8438 95.9961 58.7949 95.957 58.7559C95.8594 58.6387 95.7422 58.4824 95.6055 58.2871C95.4688 58.0918 95.4395 57.8477 95.5176 57.5547C95.3809 57.3398 95.3027 57.1152 95.2832 56.8809C95.2051 57.0371 95.1367 57.1934 95.0781 57.3496C95.0391 57.4863 95 57.623 94.9609 57.7598L94.8438 58.1406L94.4629 58.1992C94.4238 58.2383 94.3848 58.2969 94.3457 58.375C94.3262 58.4531 94.3262 58.5117 94.3457 58.5508L94.4629 58.873L94.1699 59.1367C94.1309 59.1953 94.082 59.2441 94.0234 59.2832C93.9648 59.3223 93.916 59.3613 93.877 59.4004C93.8379 59.6152 93.7793 59.8203 93.7012 60.0156C93.6426 60.2109 93.5742 60.4062 93.4961 60.6016C93.3984 60.9141 93.3008 61.2168 93.2031 61.5098C93.125 61.8027 93.0859 62.0957 93.0859 62.3887L92.9688 62.7695C92.8711 62.9258 92.7441 63.043 92.5879 63.1211C92.4512 63.1992 92.3145 63.2676 92.1777 63.3262C91.9824 63.4043 91.8457 63.4824 91.7676 63.5605L91.6797 63.9414L91.2402 64C90.9863 64.0586 90.8008 64.0977 90.6836 64.1172C90.5859 64.1367 90.4688 64.1465 90.332 64.1465L89.9512 64.1172C89.7168 63.8828 89.5215 63.707 89.3652 63.5898C89.2285 63.4531 89.0625 63.3359 88.8672 63.2383L88.6914 63.0039C88.6133 62.8477 88.5645 62.7109 88.5449 62.5938C88.5254 62.457 88.4961 62.3203 88.457 62.1836C88.418 61.9297 88.3594 61.7539 88.2812 61.6562L87.8418 61.2168ZM97.1875 53.5996C96.9141 53.9902 96.6504 54.4004 96.3965 54.8301C96.5332 54.8105 96.6602 54.8008 96.7773 54.8008C96.9141 54.8008 97.0508 54.791 97.1875 54.7715C97.8711 54.7324 98.5059 54.6836 99.0918 54.625C99.6777 54.5664 100.312 54.4688 100.996 54.332C100.84 53.6094 100.664 52.877 100.469 52.1348C100.293 51.373 100.098 50.6113 99.8828 49.8496L99.7363 50.1426C99.248 50.6699 98.7793 51.2363 98.3301 51.8418C97.8809 52.4473 97.5098 53.0234 97.2168 53.5703L97.1875 53.5996ZM111.338 62.916C111.26 62.8379 111.191 62.75 111.133 62.6523C111.074 62.5352 111.025 62.3887 110.986 62.2129C110.713 61.8809 110.498 61.5 110.342 61.0703C110.186 60.6406 110.078 60.2012 110.02 59.752C109.961 59.2832 109.951 58.8145 109.99 58.3457C110.029 57.877 110.098 57.4375 110.195 57.0273C110.254 56.832 110.303 56.627 110.342 56.4121C110.439 56.041 110.537 55.6797 110.635 55.3281C110.732 54.957 110.879 54.6543 111.074 54.4199C110.996 54.2051 111.006 53.9707 111.104 53.7168C111.201 53.4629 111.299 53.2285 111.396 53.0137C111.436 52.9551 111.465 52.9062 111.484 52.8672C111.504 52.8086 111.523 52.7598 111.543 52.7207C111.777 52.0371 112.002 51.3828 112.217 50.7578C112.451 50.1133 112.676 49.498 112.891 48.9121C113.281 47.8379 113.652 46.7832 114.004 45.748C114.375 44.7129 114.707 43.6094 115 42.4375C115.156 42.3203 115.293 42.2422 115.41 42.2031C115.449 42.1836 115.498 42.1641 115.557 42.1445C115.615 42.125 115.684 42.1152 115.762 42.1152C116.172 42.3301 116.65 42.5352 117.197 42.7305C117.764 42.9062 118.242 42.9941 118.633 42.9941L119.131 43.4336C119.385 43.7266 119.6 44.0391 119.775 44.3711C119.971 44.6836 120.029 45.0938 119.951 45.6016C119.834 45.7773 119.736 45.8848 119.658 45.9238C119.541 46.373 119.414 46.7734 119.277 47.125C119.141 47.457 119.004 47.7793 118.867 48.0918C118.711 48.4434 118.564 48.7949 118.428 49.1465C118.291 49.498 118.174 49.9277 118.076 50.4355C117.959 50.5723 117.881 50.6895 117.842 50.7871C117.822 50.8848 117.793 50.9824 117.754 51.0801C117.715 51.1973 117.666 51.3242 117.607 51.4609C117.549 51.5781 117.461 51.6855 117.344 51.7832C117.266 52.3887 117.148 52.8867 116.992 53.2773C116.836 53.6484 116.68 54.0195 116.523 54.3906C116.25 55.0742 115.996 55.7578 115.762 56.4414C115.527 57.1055 115.391 57.8672 115.352 58.7266C115.586 58.668 115.801 58.6387 115.996 58.6387C116.25 58.6387 116.494 58.6777 116.729 58.7559C117.432 58.4043 118.193 58.1895 119.014 58.1113C119.854 58.0332 120.684 57.9844 121.504 57.9648C122.188 57.9648 122.822 57.9355 123.408 57.877C123.604 58.0137 123.73 58.0918 123.789 58.1113C123.848 58.1113 123.945 58.1113 124.082 58.1113C124.141 58.1113 124.199 58.1113 124.258 58.1113C124.316 58.1113 124.395 58.1211 124.492 58.1406C124.766 58.4141 125.029 58.6094 125.283 58.7266C125.537 58.8242 125.811 58.9219 126.104 59.0195C126.357 59.1172 126.602 59.2246 126.836 59.3418C127.09 59.4395 127.334 59.5762 127.568 59.752L127.832 61.2461C127.988 61.4609 128.057 61.6074 128.037 61.6855C128.037 61.8418 127.998 61.9785 127.92 62.0957L127.979 62.4766C127.607 62.5547 127.363 62.6426 127.246 62.7402C127.129 62.8184 127.002 62.9258 126.865 63.0625C126.65 63.082 126.445 63.0918 126.25 63.0918C125.859 63.0918 125.459 63.1504 125.049 63.2676C124.463 63.0527 123.818 62.9453 123.115 62.9453C122.842 62.9453 122.559 62.9551 122.266 62.9746C121.992 62.9941 121.719 63.0234 121.445 63.0625C121.152 63.1016 120.859 63.1406 120.566 63.1797C120.273 63.1992 119.98 63.209 119.688 63.209C119.453 63.248 119.287 63.2773 119.189 63.2969C119.092 63.3164 118.994 63.3457 118.896 63.3848C118.232 63.5996 117.51 63.8145 116.729 64.0293C115.967 64.2441 115.195 64.3516 114.414 64.3516C113.262 64.3516 112.334 64.0586 111.631 63.4727C111.553 63.2969 111.494 63.1797 111.455 63.1211C111.416 63.0625 111.377 62.9941 111.338 62.916ZM130.293 63.0039C130.137 62.8477 130.02 62.6621 129.941 62.4473C129.883 62.2324 129.727 62.0566 129.473 61.9199C129.434 61.627 129.375 61.2949 129.297 60.9238C129.238 60.5332 129.17 60.1426 129.092 59.752C129.033 59.3418 128.984 58.9414 128.945 58.5508C128.926 58.1406 128.945 57.7695 129.004 57.4375C129.043 57.2617 129.102 57.0957 129.18 56.9395C129.277 56.7832 129.365 56.6367 129.443 56.5C129.541 56.3438 129.609 56.1875 129.648 56.0312C129.707 55.875 129.717 55.7188 129.678 55.5625C129.795 55.543 129.863 55.4844 129.883 55.3867C129.922 55.2695 130.02 55.2305 130.176 55.2695C130.312 54.8398 130.459 54.4395 130.615 54.0684C130.771 53.6973 130.938 53.3359 131.113 52.9844C131.289 52.6328 131.465 52.2812 131.641 51.9297C131.836 51.5586 132.012 51.1484 132.168 50.6992C131.836 50.3867 131.592 50.0547 131.436 49.7031C131.299 49.332 131.191 48.9609 131.113 48.5898C131.035 48.2188 130.977 47.8477 130.938 47.4766C130.898 47.0859 130.82 46.6953 130.703 46.3047C130.938 45.9531 131.221 45.6699 131.553 45.4551C131.885 45.2207 132.246 45.0352 132.637 44.8984C133.047 44.7422 133.486 44.625 133.955 44.5469C134.424 44.4492 134.922 44.3418 135.449 44.2246C136.387 43.9316 137.227 43.707 137.969 43.5508C138.711 43.375 139.434 43.2383 140.137 43.1406C140.84 43.0234 141.572 42.9258 142.334 42.8477C143.096 42.75 143.975 42.6133 144.971 42.4375C144.99 42.4961 145.02 42.5254 145.059 42.5254C145.117 42.5254 145.186 42.5254 145.264 42.5254C145.322 42.6621 145.43 42.7305 145.586 42.7305C145.586 42.6719 145.576 42.623 145.557 42.584C145.557 42.5254 145.557 42.4766 145.557 42.4375C145.596 42.4375 145.645 42.4473 145.703 42.4668C145.781 42.4863 145.84 42.5059 145.879 42.5254C145.938 42.5449 145.986 42.5449 146.025 42.5254C146.064 42.4863 146.074 42.418 146.055 42.3203C146.289 42.7305 146.592 43.0723 146.963 43.3457C147.334 43.5996 147.744 43.8242 148.193 44.0195C148.213 44.1953 148.213 44.3223 148.193 44.4004C148.193 44.4785 148.184 44.5566 148.164 44.6348C148.145 44.6934 148.135 44.7715 148.135 44.8691C148.135 44.9473 148.154 45.0645 148.193 45.2207C147.881 45.748 147.52 46.1582 147.109 46.4512C146.719 46.7441 146.299 46.9688 145.85 47.125C145.4 47.2812 144.922 47.3984 144.414 47.4766C143.926 47.5547 143.418 47.6426 142.891 47.7402C142.383 47.8184 141.865 47.9355 141.338 48.0918C140.811 48.248 140.293 48.4824 139.785 48.7949C139.629 48.7363 139.482 48.7168 139.346 48.7363C139.229 48.7363 139.102 48.7559 138.965 48.7949C138.828 48.834 138.672 48.873 138.496 48.9121C138.34 48.9512 138.145 48.9512 137.91 48.9121C137.754 49.0488 137.568 49.1465 137.354 49.2051C137.158 49.2637 136.953 49.3223 136.738 49.3809C136.836 49.5957 136.875 49.8105 136.855 50.0254C136.855 50.2402 136.885 50.4258 136.943 50.582C137.764 50.6602 138.672 50.6602 139.668 50.582C140.664 50.4844 141.641 50.416 142.598 50.377C142.617 50.4746 142.607 50.543 142.568 50.582C142.529 50.6211 142.51 50.6895 142.51 50.7871C142.686 50.9043 142.852 51.0508 143.008 51.2266C143.164 51.4023 143.32 51.5781 143.477 51.7539C143.652 51.9102 143.828 52.0469 144.004 52.1641C144.18 52.2617 144.385 52.3008 144.619 52.2812C144.717 52.4766 144.785 52.6816 144.824 52.8965C144.863 53.1113 144.834 53.3359 144.736 53.5703C144.346 53.8242 143.965 54.0879 143.594 54.3613C143.223 54.6152 142.832 54.8496 142.422 55.0645C142.031 55.2793 141.602 55.4551 141.133 55.5918C140.664 55.7285 140.156 55.7871 139.609 55.7676C139.512 55.7676 139.424 55.7676 139.346 55.7676C139.287 55.7676 139.209 55.7285 139.111 55.6504C138.916 55.748 138.652 55.7871 138.32 55.7676C138.008 55.7285 137.744 55.7578 137.529 55.8555C137.256 55.7578 136.934 55.709 136.562 55.709C136.211 55.709 135.898 55.6602 135.625 55.5625C135.273 56.0703 134.941 56.6074 134.629 57.1738C134.316 57.7207 134.043 58.3066 133.809 58.9316C134.609 59.0488 135.273 59.0977 135.801 59.0781C136.328 59.0586 136.826 59.0195 137.295 58.9609C137.764 58.9023 138.242 58.8438 138.73 58.7852C139.238 58.7266 139.854 58.707 140.576 58.7266C141.064 58.4922 141.621 58.3359 142.246 58.2578C142.891 58.1602 143.486 58.0234 144.033 57.8477C144.229 57.9062 144.395 58.0234 144.531 58.1992C144.668 58.3555 144.795 58.5215 144.912 58.6973C145.049 58.8535 145.186 58.9902 145.322 59.1074C145.459 59.2246 145.635 59.2637 145.85 59.2246C145.947 59.3223 146.006 59.4395 146.025 59.5762C146.064 59.7129 146.094 59.8398 146.113 59.957C146.152 60.0742 146.201 60.1719 146.26 60.25C146.318 60.3086 146.426 60.3281 146.582 60.3086C146.211 61.0703 145.791 61.6562 145.322 62.0664C144.873 62.4766 144.355 62.7988 143.77 63.0332C143.203 63.248 142.559 63.4141 141.836 63.5312C141.133 63.6289 140.342 63.7559 139.463 63.9121C139.248 63.9512 139.062 63.9512 138.906 63.9121C138.77 63.8535 138.623 63.8242 138.467 63.8242C137.92 63.9219 137.266 64.0195 136.504 64.1172C135.762 64.2148 135.01 64.2539 134.248 64.2344C133.486 64.2148 132.754 64.1172 132.051 63.9414C131.348 63.7656 130.762 63.4531 130.293 63.0039ZM148.105 47.4766C148.086 47.3203 148.047 47.1836 147.988 47.0664C147.949 46.9297 147.9 46.7832 147.842 46.627C147.744 46.3926 147.656 46.1387 147.578 45.8652C147.5 45.5918 147.461 45.2695 147.461 44.8984C147.5 44.7031 147.549 44.5664 147.607 44.4883C147.666 44.3906 147.725 44.3125 147.783 44.2539L147.9 43.7266H148.34C148.496 43.7461 148.652 43.7559 148.809 43.7559C148.984 43.7559 149.15 43.7559 149.307 43.7559C150.049 43.7559 150.811 43.7266 151.592 43.668C152.373 43.6094 153.174 43.541 153.994 43.4629C154.893 43.3457 155.859 43.2578 156.895 43.1992C156.992 42.9844 157.051 42.8477 157.07 42.7891C157.109 42.7305 157.148 42.6621 157.188 42.584L157.51 42.4082C157.959 42.3887 158.271 42.4473 158.447 42.584C158.623 42.7012 158.76 42.8184 158.857 42.9355C159.365 42.8965 159.883 42.8477 160.41 42.7891C160.938 42.7109 161.484 42.6328 162.051 42.5547C162.832 42.457 163.623 42.3594 164.424 42.2617C165.225 42.1641 166.006 42.1152 166.768 42.1152C167.1 42.1152 167.412 42.125 167.705 42.1445C167.998 42.1641 168.281 42.1934 168.555 42.2324L168.906 42.4961C168.984 42.6328 169.082 42.7598 169.199 42.877C169.316 42.9941 169.453 43.1113 169.609 43.2285C169.902 43.4629 170.186 43.7559 170.459 44.1074C170.752 44.459 170.859 44.9766 170.781 45.6602L170.635 45.9531C170.557 46.0312 170.459 46.1094 170.342 46.1875L170.049 46.5684H169.727C169.531 46.5684 169.385 46.5879 169.287 46.627C169.189 46.6465 169.072 46.6855 168.936 46.7441C168.857 46.7832 168.77 46.8223 168.672 46.8613C168.574 46.8809 168.467 46.9102 168.35 46.9492C168.135 46.9297 167.969 46.9199 167.852 46.9199C167.734 46.9199 167.598 46.9199 167.441 46.9199C166.855 46.9199 166.221 46.959 165.537 47.0371C164.854 47.1152 164.189 47.2031 163.545 47.3008C163.076 47.3594 162.627 47.418 162.197 47.4766C161.768 47.5156 161.377 47.5547 161.025 47.5938C160.83 48.1016 160.654 48.5508 160.498 48.9414C160.342 49.332 160.176 49.7227 160 50.1133C159.824 50.5039 159.658 50.9043 159.502 51.3145C159.346 51.7051 159.199 52.1445 159.062 52.6328C158.828 52.9844 158.633 53.3262 158.477 53.6582C158.32 53.9707 158.193 54.332 158.096 54.7422C157.803 55.0742 157.588 55.4355 157.451 55.8262C157.334 56.2168 157.227 56.5488 157.129 56.8223L157.012 57.2617C156.875 57.3984 156.787 57.5059 156.748 57.584C156.729 57.6621 156.68 57.75 156.602 57.8477C156.543 58.1016 156.465 58.3457 156.367 58.5801C156.328 58.6777 156.289 58.7852 156.25 58.9023C156.211 59 156.201 59.0781 156.221 59.1367C156.182 59.3516 156.123 59.5176 156.045 59.6348C156.045 59.752 156.035 59.8691 156.016 59.9863C155.996 60.1035 155.977 60.2207 155.957 60.3379C155.918 60.4746 155.889 60.6016 155.869 60.7188C155.85 60.8164 155.859 60.9141 155.898 61.0117C155.957 61.0898 156.016 61.168 156.074 61.2461C156.133 61.3242 156.182 61.4219 156.221 61.5391C156.26 61.5781 156.309 61.6074 156.367 61.627C156.426 61.6465 156.475 61.6758 156.514 61.7148C156.67 61.8516 156.816 61.9297 156.953 61.9492L157.246 62.3008C157.363 63.0039 157.256 63.5508 156.924 63.9414C156.572 64.3906 155.986 64.6152 155.166 64.6152L154.756 64.5859C154.619 64.4492 154.541 64.3613 154.521 64.3223C154.346 64.2441 154.199 64.1758 154.082 64.1172C153.965 64.0781 153.857 63.9902 153.76 63.8535C153.721 63.8145 153.672 63.7949 153.613 63.7949C153.555 63.7754 153.506 63.7461 153.467 63.707C153.271 63.6484 153.115 63.5801 152.998 63.502L152.676 63.3262C152.695 63.1309 152.705 62.9941 152.705 62.916C152.549 62.7012 152.422 62.4668 152.324 62.2129C152.246 61.959 152.178 61.6953 152.119 61.4219C152.061 61.207 152.002 61.0117 151.943 60.8359C151.904 60.6602 151.836 60.5039 151.738 60.3672C151.699 59 151.826 57.8574 152.119 56.9395C152.412 56.002 152.734 55.0938 153.086 54.2148C153.281 53.7461 153.467 53.2676 153.643 52.7793C153.818 52.291 153.975 51.793 154.111 51.2852L154.434 50.9629C154.57 50.8457 154.658 50.7773 154.697 50.7578C154.697 50.5039 154.746 50.2598 154.844 50.0254C154.941 49.7715 155.049 49.5176 155.166 49.2637C155.244 49.1074 155.312 48.9512 155.371 48.7949C155.449 48.6387 155.498 48.502 155.518 48.3848C155.381 48.3848 155.254 48.3945 155.137 48.4141C155.039 48.4141 154.932 48.4238 154.814 48.4434C154.561 48.502 154.316 48.5312 154.082 48.5312C153.906 48.5312 153.779 48.5215 153.701 48.502C153.545 48.5801 153.398 48.6289 153.262 48.6484C153.125 48.6484 152.988 48.6484 152.852 48.6484H152.5H152.148C151.914 48.6484 151.729 48.6777 151.592 48.7363C151.318 48.7363 151.143 48.7363 151.064 48.7363C150.986 48.7363 150.898 48.7363 150.801 48.7363H150.449H150.098C149.941 48.7363 149.766 48.7266 149.57 48.707C149.375 48.668 149.17 48.5898 148.955 48.4727L148.75 48.2383C148.633 48.0234 148.525 47.9062 148.428 47.8867L148.105 47.7988V47.4766ZM166.328 47.4766C166.309 47.3203 166.27 47.1836 166.211 47.0664C166.172 46.9297 166.123 46.7832 166.064 46.627C165.967 46.3926 165.879 46.1387 165.801 45.8652C165.723 45.5918 165.684 45.2695 165.684 44.8984C165.723 44.7031 165.771 44.5664 165.83 44.4883C165.889 44.3906 165.947 44.3125 166.006 44.2539L166.123 43.7266H166.562C166.719 43.7461 166.875 43.7559 167.031 43.7559C167.207 43.7559 167.373 43.7559 167.529 43.7559C168.271 43.7559 169.033 43.7266 169.814 43.668C170.596 43.6094 171.396 43.541 172.217 43.4629C173.115 43.3457 174.082 43.2578 175.117 43.1992C175.215 42.9844 175.273 42.8477 175.293 42.7891C175.332 42.7305 175.371 42.6621 175.41 42.584L175.732 42.4082C176.182 42.3887 176.494 42.4473 176.67 42.584C176.846 42.7012 176.982 42.8184 177.08 42.9355C177.588 42.8965 178.105 42.8477 178.633 42.7891C179.16 42.7109 179.707 42.6328 180.273 42.5547C181.055 42.457 181.846 42.3594 182.646 42.2617C183.447 42.1641 184.229 42.1152 184.99 42.1152C185.322 42.1152 185.635 42.125 185.928 42.1445C186.221 42.1641 186.504 42.1934 186.777 42.2324L187.129 42.4961C187.207 42.6328 187.305 42.7598 187.422 42.877C187.539 42.9941 187.676 43.1113 187.832 43.2285C188.125 43.4629 188.408 43.7559 188.682 44.1074C188.975 44.459 189.082 44.9766 189.004 45.6602L188.857 45.9531C188.779 46.0312 188.682 46.1094 188.564 46.1875L188.271 46.5684H187.949C187.754 46.5684 187.607 46.5879 187.51 46.627C187.412 46.6465 187.295 46.6855 187.158 46.7441C187.08 46.7832 186.992 46.8223 186.895 46.8613C186.797 46.8809 186.689 46.9102 186.572 46.9492C186.357 46.9297 186.191 46.9199 186.074 46.9199C185.957 46.9199 185.82 46.9199 185.664 46.9199C185.078 46.9199 184.443 46.959 183.76 47.0371C183.076 47.1152 182.412 47.2031 181.768 47.3008C181.299 47.3594 180.85 47.418 180.42 47.4766C179.99 47.5156 179.6 47.5547 179.248 47.5938C179.053 48.1016 178.877 48.5508 178.721 48.9414C178.564 49.332 178.398 49.7227 178.223 50.1133C178.047 50.5039 177.881 50.9043 177.725 51.3145C177.568 51.7051 177.422 52.1445 177.285 52.6328C177.051 52.9844 176.855 53.3262 176.699 53.6582C176.543 53.9707 176.416 54.332 176.318 54.7422C176.025 55.0742 175.811 55.4355 175.674 55.8262C175.557 56.2168 175.449 56.5488 175.352 56.8223L175.234 57.2617C175.098 57.3984 175.01 57.5059 174.971 57.584C174.951 57.6621 174.902 57.75 174.824 57.8477C174.766 58.1016 174.688 58.3457 174.59 58.5801C174.551 58.6777 174.512 58.7852 174.473 58.9023C174.434 59 174.424 59.0781 174.443 59.1367C174.404 59.3516 174.346 59.5176 174.268 59.6348C174.268 59.752 174.258 59.8691 174.238 59.9863C174.219 60.1035 174.199 60.2207 174.18 60.3379C174.141 60.4746 174.111 60.6016 174.092 60.7188C174.072 60.8164 174.082 60.9141 174.121 61.0117C174.18 61.0898 174.238 61.168 174.297 61.2461C174.355 61.3242 174.404 61.4219 174.443 61.5391C174.482 61.5781 174.531 61.6074 174.59 61.627C174.648 61.6465 174.697 61.6758 174.736 61.7148C174.893 61.8516 175.039 61.9297 175.176 61.9492L175.469 62.3008C175.586 63.0039 175.479 63.5508 175.146 63.9414C174.795 64.3906 174.209 64.6152 173.389 64.6152L172.979 64.5859C172.842 64.4492 172.764 64.3613 172.744 64.3223C172.568 64.2441 172.422 64.1758 172.305 64.1172C172.188 64.0781 172.08 63.9902 171.982 63.8535C171.943 63.8145 171.895 63.7949 171.836 63.7949C171.777 63.7754 171.729 63.7461 171.689 63.707C171.494 63.6484 171.338 63.5801 171.221 63.502L170.898 63.3262C170.918 63.1309 170.928 62.9941 170.928 62.916C170.771 62.7012 170.645 62.4668 170.547 62.2129C170.469 61.959 170.4 61.6953 170.342 61.4219C170.283 61.207 170.225 61.0117 170.166 60.8359C170.127 60.6602 170.059 60.5039 169.961 60.3672C169.922 59 170.049 57.8574 170.342 56.9395C170.635 56.002 170.957 55.0938 171.309 54.2148C171.504 53.7461 171.689 53.2676 171.865 52.7793C172.041 52.291 172.197 51.793 172.334 51.2852L172.656 50.9629C172.793 50.8457 172.881 50.7773 172.92 50.7578C172.92 50.5039 172.969 50.2598 173.066 50.0254C173.164 49.7715 173.271 49.5176 173.389 49.2637C173.467 49.1074 173.535 48.9512 173.594 48.7949C173.672 48.6387 173.721 48.502 173.74 48.3848C173.604 48.3848 173.477 48.3945 173.359 48.4141C173.262 48.4141 173.154 48.4238 173.037 48.4434C172.783 48.502 172.539 48.5312 172.305 48.5312C172.129 48.5312 172.002 48.5215 171.924 48.502C171.768 48.5801 171.621 48.6289 171.484 48.6484C171.348 48.6484 171.211 48.6484 171.074 48.6484H170.723H170.371C170.137 48.6484 169.951 48.6777 169.814 48.7363C169.541 48.7363 169.365 48.7363 169.287 48.7363C169.209 48.7363 169.121 48.7363 169.023 48.7363H168.672H168.32C168.164 48.7363 167.988 48.7266 167.793 48.707C167.598 48.668 167.393 48.5898 167.178 48.4727L166.973 48.2383C166.855 48.0234 166.748 47.9062 166.65 47.8867L166.328 47.7988V47.4766ZM185.547 63.0039C185.391 62.8477 185.273 62.6621 185.195 62.4473C185.137 62.2324 184.98 62.0566 184.727 61.9199C184.688 61.627 184.629 61.2949 184.551 60.9238C184.492 60.5332 184.424 60.1426 184.346 59.752C184.287 59.3418 184.238 58.9414 184.199 58.5508C184.18 58.1406 184.199 57.7695 184.258 57.4375C184.297 57.2617 184.355 57.0957 184.434 56.9395C184.531 56.7832 184.619 56.6367 184.697 56.5C184.795 56.3438 184.863 56.1875 184.902 56.0312C184.961 55.875 184.971 55.7188 184.932 55.5625C185.049 55.543 185.117 55.4844 185.137 55.3867C185.176 55.2695 185.273 55.2305 185.43 55.2695C185.566 54.8398 185.713 54.4395 185.869 54.0684C186.025 53.6973 186.191 53.3359 186.367 52.9844C186.543 52.6328 186.719 52.2812 186.895 51.9297C187.09 51.5586 187.266 51.1484 187.422 50.6992C187.09 50.3867 186.846 50.0547 186.689 49.7031C186.553 49.332 186.445 48.9609 186.367 48.5898C186.289 48.2188 186.23 47.8477 186.191 47.4766C186.152 47.0859 186.074 46.6953 185.957 46.3047C186.191 45.9531 186.475 45.6699 186.807 45.4551C187.139 45.2207 187.5 45.0352 187.891 44.8984C188.301 44.7422 188.74 44.625 189.209 44.5469C189.678 44.4492 190.176 44.3418 190.703 44.2246C191.641 43.9316 192.48 43.707 193.223 43.5508C193.965 43.375 194.688 43.2383 195.391 43.1406C196.094 43.0234 196.826 42.9258 197.588 42.8477C198.35 42.75 199.229 42.6133 200.225 42.4375C200.244 42.4961 200.273 42.5254 200.312 42.5254C200.371 42.5254 200.439 42.5254 200.518 42.5254C200.576 42.6621 200.684 42.7305 200.84 42.7305C200.84 42.6719 200.83 42.623 200.811 42.584C200.811 42.5254 200.811 42.4766 200.811 42.4375C200.85 42.4375 200.898 42.4473 200.957 42.4668C201.035 42.4863 201.094 42.5059 201.133 42.5254C201.191 42.5449 201.24 42.5449 201.279 42.5254C201.318 42.4863 201.328 42.418 201.309 42.3203C201.543 42.7305 201.846 43.0723 202.217 43.3457C202.588 43.5996 202.998 43.8242 203.447 44.0195C203.467 44.1953 203.467 44.3223 203.447 44.4004C203.447 44.4785 203.438 44.5566 203.418 44.6348C203.398 44.6934 203.389 44.7715 203.389 44.8691C203.389 44.9473 203.408 45.0645 203.447 45.2207C203.135 45.748 202.773 46.1582 202.363 46.4512C201.973 46.7441 201.553 46.9688 201.104 47.125C200.654 47.2812 200.176 47.3984 199.668 47.4766C199.18 47.5547 198.672 47.6426 198.145 47.7402C197.637 47.8184 197.119 47.9355 196.592 48.0918C196.064 48.248 195.547 48.4824 195.039 48.7949C194.883 48.7363 194.736 48.7168 194.6 48.7363C194.482 48.7363 194.355 48.7559 194.219 48.7949C194.082 48.834 193.926 48.873 193.75 48.9121C193.594 48.9512 193.398 48.9512 193.164 48.9121C193.008 49.0488 192.822 49.1465 192.607 49.2051C192.412 49.2637 192.207 49.3223 191.992 49.3809C192.09 49.5957 192.129 49.8105 192.109 50.0254C192.109 50.2402 192.139 50.4258 192.197 50.582C193.018 50.6602 193.926 50.6602 194.922 50.582C195.918 50.4844 196.895 50.416 197.852 50.377C197.871 50.4746 197.861 50.543 197.822 50.582C197.783 50.6211 197.764 50.6895 197.764 50.7871C197.939 50.9043 198.105 51.0508 198.262 51.2266C198.418 51.4023 198.574 51.5781 198.73 51.7539C198.906 51.9102 199.082 52.0469 199.258 52.1641C199.434 52.2617 199.639 52.3008 199.873 52.2812C199.971 52.4766 200.039 52.6816 200.078 52.8965C200.117 53.1113 200.088 53.3359 199.99 53.5703C199.6 53.8242 199.219 54.0879 198.848 54.3613C198.477 54.6152 198.086 54.8496 197.676 55.0645C197.285 55.2793 196.855 55.4551 196.387 55.5918C195.918 55.7285 195.41 55.7871 194.863 55.7676C194.766 55.7676 194.678 55.7676 194.6 55.7676C194.541 55.7676 194.463 55.7285 194.365 55.6504C194.17 55.748 193.906 55.7871 193.574 55.7676C193.262 55.7285 192.998 55.7578 192.783 55.8555C192.51 55.7578 192.188 55.709 191.816 55.709C191.465 55.709 191.152 55.6602 190.879 55.5625C190.527 56.0703 190.195 56.6074 189.883 57.1738C189.57 57.7207 189.297 58.3066 189.062 58.9316C189.863 59.0488 190.527 59.0977 191.055 59.0781C191.582 59.0586 192.08 59.0195 192.549 58.9609C193.018 58.9023 193.496 58.8438 193.984 58.7852C194.492 58.7266 195.107 58.707 195.83 58.7266C196.318 58.4922 196.875 58.3359 197.5 58.2578C198.145 58.1602 198.74 58.0234 199.287 57.8477C199.482 57.9062 199.648 58.0234 199.785 58.1992C199.922 58.3555 200.049 58.5215 200.166 58.6973C200.303 58.8535 200.439 58.9902 200.576 59.1074C200.713 59.2246 200.889 59.2637 201.104 59.2246C201.201 59.3223 201.26 59.4395 201.279 59.5762C201.318 59.7129 201.348 59.8398 201.367 59.957C201.406 60.0742 201.455 60.1719 201.514 60.25C201.572 60.3086 201.68 60.3281 201.836 60.3086C201.465 61.0703 201.045 61.6562 200.576 62.0664C200.127 62.4766 199.609 62.7988 199.023 63.0332C198.457 63.248 197.812 63.4141 197.09 63.5312C196.387 63.6289 195.596 63.7559 194.717 63.9121C194.502 63.9512 194.316 63.9512 194.16 63.9121C194.023 63.8535 193.877 63.8242 193.721 63.8242C193.174 63.9219 192.52 64.0195 191.758 64.1172C191.016 64.2148 190.264 64.2539 189.502 64.2344C188.74 64.2148 188.008 64.1172 187.305 63.9414C186.602 63.7656 186.016 63.4531 185.547 63.0039Z" fill="#3D475D"/>
</svg>
