<svg width="28" height="24" viewBox="0 0 28 24" fill="none" xmlns="http://www.w3.org/2000/svg">
<path d="M16.25 23.25C14.7083 23.25 13.2658 22.9633 11.9225 22.39C10.5783 21.8175 9.39583 21.0312 8.375 20.0312L10.1563 18.25C10.9479 19.0208 11.8646 19.63 12.9063 20.0775C13.9479 20.5258 15.0625 20.75 16.25 20.75C18.6667 20.75 20.7292 19.8958 22.4375 18.1875C24.1458 16.4792 25 14.4167 25 12C25 9.58333 24.1458 7.52083 22.4375 5.8125C20.7292 4.10417 18.6667 3.25 16.25 3.25C13.8333 3.25 11.7708 4.10417 10.0625 5.8125C8.35417 7.52083 7.5 9.58333 7.5 12V12.2188L9.78125 9.9375L11.5625 11.6875L6.25 17L0.9375 11.6875L2.71875 9.9375L5 12.25V12C5 10.4375 5.29708 8.97375 5.89125 7.60875C6.48458 6.24458 7.28667 5.05708 8.2975 4.04625C9.3075 3.03625 10.495 2.23417 11.86 1.64C13.2242 1.04667 14.6875 0.75 16.25 0.75C17.8125 0.75 19.2763 1.04667 20.6413 1.64C22.0054 2.23417 23.1929 3.03625 24.2038 4.04625C25.2138 5.05708 26.0158 6.24458 26.61 7.60875C27.2033 8.97375 27.5 10.4375 27.5 12C27.5 15.125 26.4063 17.7812 24.2188 19.9688C22.0313 22.1562 19.375 23.25 16.25 23.25ZM13.75 17C13.3958 17 13.0992 16.88 12.86 16.64C12.62 16.4008 12.5 16.1042 12.5 15.75V12C12.5 11.6458 12.62 11.3487 12.86 11.1087C13.0992 10.8696 13.3958 10.75 13.75 10.75V9.5C13.75 8.8125 13.995 8.22375 14.485 7.73375C14.9742 7.24458 15.5625 7 16.25 7C16.9375 7 17.5263 7.24458 18.0163 7.73375C18.5054 8.22375 18.75 8.8125 18.75 9.5V10.75C19.1042 10.75 19.4013 10.8696 19.6413 11.1087C19.8804 11.3487 20 11.6458 20 12V15.75C20 16.1042 19.8804 16.4008 19.6413 16.64C19.4013 16.88 19.1042 17 18.75 17H13.75ZM15 10.75H17.5V9.5C17.5 9.14583 17.3804 8.84875 17.1413 8.60875C16.9013 8.36958 16.6042 8.25 16.25 8.25C15.8958 8.25 15.5992 8.36958 15.36 8.60875C15.12 8.84875 15 9.14583 15 9.5V10.75Z" fill="#3D475D"/>
</svg>
